<svg xmlns="http://www.w3.org/2000/svg" enable-background="new 0 0 48 48" viewBox="0 0 48 48"><path fill="none" stroke="#000" stroke-linecap="round" stroke-linejoin="round" stroke-miterlimit="10" stroke-width="1.5" d="M13.5 38.3v-8.2c0-.6-.5-1-1-1h-3c-.6 0-1 .5-1 1v8.2c0 .6.5 1 1 1h3C13.1 39.3 13.5 38.8 13.5 38.3zM23.5 38.3V24.1c0-.6-.5-1-1-1h-3c-.6 0-1 .5-1 1v14.2c0 .6.5 1 1 1h3C23.1 39.3 23.5 38.8 23.5 38.3zM33.6 38.3V21c0-.6-.5-1-1-1h-3c-.6 0-1 .5-1 1v17.3c0 .6.5 1 1 1h3C33.1 39.3 33.6 38.8 33.6 38.3zM43.6 38.3V15.6c0-.6-.5-1-1-1h-3c-.6 0-1 .5-1 1v22.6c0 .6.5 1 1 1h3C43.1 39.3 43.6 38.8 43.6 38.3z"/><path fill="none" stroke="#000" stroke-linecap="round" stroke-linejoin="round" stroke-miterlimit="10" stroke-width="1.5" d="
			M47,43.7H5c-0.6,0-1-0.5-1-1V0.8"/><line x1="4.1" x2="1" y1="5.2" y2="5.2" fill="none" stroke="#000" stroke-linecap="round" stroke-linejoin="round" stroke-miterlimit="10" stroke-width="1.5"/><line x1="4.1" x2="1" y1="10.9" y2="10.9" fill="none" stroke="#000" stroke-linecap="round" stroke-linejoin="round" stroke-miterlimit="10" stroke-width="1.5"/><line x1="4.1" x2="1" y1="16.6" y2="16.6" fill="none" stroke="#000" stroke-linecap="round" stroke-linejoin="round" stroke-miterlimit="10" stroke-width="1.5"/><line x1="4.1" x2="1" y1="22.2" y2="22.2" fill="none" stroke="#000" stroke-linecap="round" stroke-linejoin="round" stroke-miterlimit="10" stroke-width="1.5"/><line x1="4.1" x2="1" y1="27.9" y2="27.9" fill="none" stroke="#000" stroke-linecap="round" stroke-linejoin="round" stroke-miterlimit="10" stroke-width="1.5"/><line x1="4.1" x2="1" y1="33.6" y2="33.6" fill="none" stroke="#000" stroke-linecap="round" stroke-linejoin="round" stroke-miterlimit="10" stroke-width="1.5"/><line x1="4.1" x2="1" y1="39.3" y2="39.3" fill="none" stroke="#000" stroke-linecap="round" stroke-linejoin="round" stroke-miterlimit="10" stroke-width="1.5"/><line x1="8.5" x2="8.5" y1="44.2" y2="47.3" fill="none" stroke="#000" stroke-linecap="round" stroke-linejoin="round" stroke-miterlimit="10" stroke-width="1.5"/><line x1="14.2" x2="14.2" y1="44.2" y2="47.3" fill="none" stroke="#000" stroke-linecap="round" stroke-linejoin="round" stroke-miterlimit="10" stroke-width="1.5"/><line x1="19.9" x2="19.9" y1="44.2" y2="47.3" fill="none" stroke="#000" stroke-linecap="round" stroke-linejoin="round" stroke-miterlimit="10" stroke-width="1.5"/><line x1="25.5" x2="25.5" y1="44.2" y2="47.3" fill="none" stroke="#000" stroke-linecap="round" stroke-linejoin="round" stroke-miterlimit="10" stroke-width="1.5"/><line x1="31.2" x2="31.2" y1="44.2" y2="47.3" fill="none" stroke="#000" stroke-linecap="round" stroke-linejoin="round" stroke-miterlimit="10" stroke-width="1.5"/><line x1="36.9" x2="36.9" y1="44.2" y2="47.3" fill="none" stroke="#000" stroke-linecap="round" stroke-linejoin="round" stroke-miterlimit="10" stroke-width="1.5"/><line x1="42.6" x2="42.6" y1="44.2" y2="47.3" fill="none" stroke="#000" stroke-linecap="round" stroke-linejoin="round" stroke-miterlimit="10" stroke-width="1.5"/><polyline fill="none" stroke="#000" stroke-linecap="round" stroke-linejoin="round" stroke-miterlimit="10" stroke-width="1.5" points="42.6 2.8 30.7 14.7 25.4 9.5 11.8 23.1"/><polyline fill="none" stroke="#000" stroke-linecap="round" stroke-linejoin="round" stroke-miterlimit="10" stroke-width="1.5" points="37.8 2.8 42.6 2.8 42.6 7.6"/></svg>