<svg width="24" height="30" viewBox="0 0 24 30" fill="none" xmlns="http://www.w3.org/2000/svg">
<path d="M19.8188 15.8986C19.8477 13.6507 21.0262 11.5744 22.9412 10.3971C21.7276 8.66386 19.7678 7.60435 17.6529 7.53818C15.428 7.30464 13.2709 8.86958 12.1371 8.86958C10.9814 8.86958 9.23568 7.56137 7.35587 7.60004C4.88253 7.67995 2.6326 9.0521 1.42927 11.2145C-1.13327 15.6511 0.778152 22.1715 3.23285 25.7577C4.46099 27.5138 5.89633 29.4754 7.77445 29.4058C9.6123 29.3296 10.2987 28.2339 12.5171 28.2339C14.715 28.2339 15.359 29.4058 17.2752 29.3616C19.2473 29.3296 20.4898 27.5977 21.6749 25.825C22.5573 24.5737 23.2363 23.1908 23.6868 21.7274C21.3445 20.7368 19.8215 18.4417 19.8188 15.8986ZM16.1994 5.17962C17.2746 3.8888 17.8044 2.22967 17.6761 0.554565C16.0333 0.727107 14.5159 1.51225 13.4261 2.75354C12.35 3.97825 11.8048 5.58049 11.9107 7.20737C13.5755 7.22451 15.1562 6.47714 16.1994 5.17962Z" fill="white"/>
</svg>
