<svg width="13" height="24" viewBox="0 0 13 24" fill="none" xmlns="http://www.w3.org/2000/svg">
<path d="M12.5365 11.5189L1.29752 0.264911C1.23236 0.186421 1.15154 0.12239 1.06023 0.07691C0.968919 0.0314304 0.869122 0.00550285 0.767219 0.000784769C0.665317 -0.00393331 0.563551 0.0126619 0.468427 0.0495095C0.373303 0.0863572 0.286913 0.142647 0.21478 0.21478C0.142647 0.286913 0.0863573 0.373303 0.0495097 0.468427C0.0126621 0.563551 -0.00393332 0.665317 0.000784763 0.767219C0.00550284 0.869122 0.031431 0.968919 0.0769107 1.06023C0.12239 1.15154 0.186421 1.23236 0.264911 1.29752L10.9951 12.0277L0.264911 22.7579C0.128741 22.8952 0.0523399 23.0808 0.0523399 23.2742C0.0523399 23.4676 0.128741 23.6531 0.264911 23.7905C0.400891 23.9237 0.58336 23.9989 0.773734 24C0.968389 23.9981 1.15528 23.9234 1.29752 23.7905L12.5365 12.5365C12.6035 12.4698 12.6566 12.3905 12.6929 12.3032C12.7291 12.2159 12.7478 12.1222 12.7478 12.0277C12.7478 11.9332 12.7291 11.8395 12.6929 11.7522C12.6566 11.6649 12.6035 11.5856 12.5365 11.5189Z" fill="#262A65"/>
</svg>
