<svg width="13" height="24" viewBox="0 0 13 24" fill="none" xmlns="http://www.w3.org/2000/svg">
    <path d="M0.463481 12.4811L11.7025 23.7351C11.7676 23.8136 11.8485 23.8776 11.9398 23.9231C12.0311 23.9686 12.1309 23.9945 12.2328 23.9992C12.3347 24.0039 12.4364 23.9873 12.5316 23.9505C12.6267 23.9136 12.7131 23.8574 12.7852 23.7852C12.8574 23.7131 12.9136 23.6267 12.9505 23.5316C12.9873 23.4364 13.0039 23.3347 12.9992 23.2328C12.9945 23.1309 12.9686 23.0311 12.9231 22.9398C12.8776 22.8485 12.8136 22.7676 12.7351 22.7025L2.00491 11.9723L12.7351 1.24213C12.8713 1.10479 12.9477 0.91922 12.9477 0.725821C12.9477 0.532419 12.8713 0.346851 12.7351 0.209515C12.5991 0.0762748 12.4166 0.00114054 12.2263 -6.76419e-08C12.0316 0.00186721 11.8447 0.0766219 11.7025 0.209515L0.463481 11.4635C0.396512 11.5302 0.343377 11.6095 0.307121 11.6968C0.270866 11.7841 0.252202 11.8778 0.252202 11.9723C0.252202 12.0668 0.270866 12.1605 0.307121 12.2478C0.343377 12.3351 0.396512 12.4144 0.463481 12.4811Z" fill="#1A1A1A"/>
</svg>
