<svg width="24" height="13" viewBox="0 0 24 13" fill="none" xmlns="http://www.w3.org/2000/svg">
    <path d="M12.4811 12.5365L23.7351 1.29752C23.8136 1.23236 23.8776 1.15154 23.9231 1.06023C23.9686 0.968919 23.9945 0.869122 23.9992 0.767219C24.0039 0.665317 23.9873 0.563551 23.9505 0.468427C23.9136 0.373303 23.8574 0.286913 23.7852 0.21478C23.7131 0.142647 23.6267 0.0863573 23.5316 0.0495097C23.4364 0.012662 23.3347 -0.00393335 23.2328 0.000784729C23.1309 0.0055028 23.0311 0.031431 22.9398 0.0769107C22.8485 0.12239 22.7676 0.186421 22.7025 0.264911L11.9723 10.9951L1.24213 0.26491C1.10479 0.12874 0.91922 0.0523388 0.725821 0.0523388C0.532419 0.0523388 0.346851 0.12874 0.209515 0.26491C0.0762749 0.40089 0.00114057 0.583359 -3.3821e-08 0.773733C0.00186725 0.968388 0.076622 1.15527 0.209515 1.29752L11.4635 12.5365C11.5302 12.6035 11.6095 12.6566 11.6968 12.6929C11.7841 12.7291 11.8778 12.7478 11.9723 12.7478C12.0668 12.7478 12.1605 12.7291 12.2478 12.6929C12.3351 12.6566 12.4144 12.6035 12.4811 12.5365Z" fill="#262A65"/>
</svg>
