<svg width="13" height="23" viewBox="0 0 13 23" fill="none" xmlns="http://www.w3.org/2000/svg">
    <path d="M10.7547 5.6002V16.9233C10.7547 19.0993 8.76979 20.8617 6.3192 20.8617C3.86862 20.8617 1.88375 19.0993 1.88375 16.9233V4.61559C1.88375 3.96274 2.17582 3.33664 2.6957 2.87501C3.21558 2.41339 3.92069 2.15405 4.65591 2.15405C5.39113 2.15405 6.09624 2.41339 6.61612 2.87501C7.136 3.33664 7.42806 3.96274 7.42806 4.61559V14.954C7.42806 15.4956 6.92908 15.9387 6.3192 15.9387C5.70933 15.9387 5.21034 15.4956 5.21034 14.954V5.6002H3.54705V14.954C3.54705 15.6069 3.83911 16.233 4.35899 16.6946C4.87887 17.1562 5.58398 17.4156 6.3192 17.4156C7.05442 17.4156 7.75953 17.1562 8.27941 16.6946C8.79929 16.233 9.09136 15.6069 9.09136 14.954V4.61559C9.09136 2.43959 7.10649 0.677124 4.65591 0.677124C2.20532 0.677124 0.220459 2.43959 0.220459 4.61559V16.9233C0.220459 19.9165 2.94826 22.3387 6.3192 22.3387C9.69014 22.3387 12.4179 19.9165 12.4179 16.9233V5.6002H10.7547Z" fill="#808080"/>
</svg>
