<svg xmlns="http://www.w3.org/2000/svg" enable-background="new 0 0 100 100" viewBox="0 0 100 100"><path d="M18,31h3v6H7c-0.79,0-1.51,0.47-1.83,1.19c-0.32,0.73-0.18,1.57,0.35,2.16c5,5.5,5,13.8,0,19.3
	c-0.53,0.59-0.67,1.43-0.35,2.16C5.49,62.53,6.21,63,7,63h75c7.17,0,13-5.83,13-13c0-7.17-5.83-13-13-13H41v-6h52
	c0.79,0,1.51-0.47,1.83-1.19c0.32-0.73,0.18-1.57-0.35-2.16c-5-5.5-5-13.8,0-19.3c0.53-0.59,0.67-1.43,0.35-2.16
	C94.51,5.47,93.79,5,93,5H18C10.83,5,5,10.83,5,18C5,25.17,10.83,31,18,31z M82,41c4.96,0,9,4.04,9,9c0,4.96-4.04,9-9,9H10.91
	c3.16-5.58,3.16-12.42,0-18H21v8c0,0.76,0.43,1.45,1.11,1.79c0.67,0.34,1.48,0.26,2.09-0.19l6.8-5.1l6.8,5.1
	c0.35,0.26,0.78,0.4,1.2,0.4c0.31,0,0.61-0.07,0.89-0.21C40.57,50.45,41,49.76,41,49v-8H82z M25,45V21h12v24l-4.8-3.6
	C31.84,41.13,31.42,41,31,41s-0.84,0.13-1.2,0.4L25,45z M18,9h71.09c-3.16,5.58-3.16,12.42,0,18H41v-8c0-1.1-0.9-2-2-2H23
	c-1.1,0-2,0.9-2,2v8h-3c-4.96,0-9-4.04-9-9C9,13.04,13.04,9,18,9z M94.83,70.19C94.51,69.47,93.79,69,93,69H18
	c-7.17,0-13,5.83-13,13c0,7.17,5.83,13,13,13h75c0.79,0,1.51-0.47,1.83-1.19c0.32-0.73,0.18-1.57-0.35-2.16c-5-5.5-5-13.8,0-19.3
	C95.01,71.76,95.15,70.92,94.83,70.19z M89.09,91H18c-4.96,0-9-4.04-9-9c0-4.96,4.04-9,9-9h71.09C85.93,78.58,85.93,85.42,89.09,91z
	"/></svg>