<svg width="45" height="45" viewBox="0 0 45 45" fill="none" xmlns="http://www.w3.org/2000/svg">
<circle cx="22.5" cy="22.5" r="22" stroke="white"/>
<path d="M25.9995 35L34 30.1972V11L25.9995 16.172L18.7064 11.4713V11.4238H18.6344L17.9779 11L10 15.0643V35L18.0005 30.0126L25.9995 35ZM18.7078 28.8014V22.1776L25.3529 26.4629V32.9427L18.7515 28.828L18.7078 28.8014ZM26.7647 32.9063V26.0923L32.5882 22.3287V29.4098L26.7647 32.9063ZM32.5882 13.5818V20.6573L26.7647 24.4224V17.3469L26.7718 17.3427L32.5882 13.5818ZM25.2301 17.3441L25.3529 17.4238V24.7958L18.7078 20.5119V13.1385L25.2301 17.3441ZM17.296 12.9203V20.7035L11.4118 23.7007V15.9175L17.296 12.9203ZM11.4118 32.4671V25.2713L17.296 22.2741V28.7986L17.248 28.828L11.4118 32.4671Z" fill="#F8F8F8"/>
</svg>
