<svg width="37" height="39" viewBox="0 0 37 39" fill="none" xmlns="http://www.w3.org/2000/svg">
    <path fill-rule="evenodd" clip-rule="evenodd" d="M1.00092 0.5H0.132812L0.568433 1.2509L21.4531 37.2509L21.889 38.0022L22.3198 37.248L28.3965 26.6104L28.5389 26.3611L28.3954 26.1125L13.7618 0.75012L13.6175 0.5H13.3287H1.00092ZM21.8823 35.9978L1.86904 1.5H13.04L27.3858 26.3636L21.8823 35.9978ZM30.5086 13.9804C34.094 13.9804 37.0006 11.0786 37.0006 7.499C37.0006 3.91941 34.094 1.01758 30.5086 1.01758C26.9231 1.01758 24.0166 3.91941 24.0166 7.499C24.0166 11.0786 26.9231 13.9804 30.5086 13.9804Z" fill="black"/>
</svg>
