<svg width="36" height="37" viewBox="0 0 36 37" fill="none" xmlns="http://www.w3.org/2000/svg">
    <path d="M17.9984 29.403C15.0907 29.403 12.2483 28.5407 9.83066 26.9253C7.41301 25.3099 5.52869 23.0138 4.41597 20.3275C3.30324 17.6412 3.01211 14.6852 3.57937 11.8334C4.14663 8.98156 5.54681 6.36201 7.60285 4.30597C9.65889 2.24993 12.2784 0.849751 15.1302 0.282491C17.9821 -0.284768 20.938 0.00636992 23.6244 1.11909C26.3107 2.23181 28.6068 4.11614 30.2222 6.53378C31.8376 8.95143 32.6998 11.7938 32.6998 14.7015C32.6951 18.5991 31.1447 22.3357 28.3886 25.0917C25.6326 27.8478 21.896 29.3982 17.9984 29.403ZM17.9984 1.20013C15.328 1.20013 12.7177 1.99197 10.4974 3.47552C8.27712 4.95907 6.54662 7.06769 5.52473 9.53474C4.50285 12.0018 4.23547 14.7165 4.75643 17.3355C5.27738 19.9545 6.56326 22.3602 8.45146 24.2484C10.3397 26.1366 12.7454 27.4225 15.3644 27.9434C17.9834 28.4644 20.6981 28.197 23.1651 27.1751C25.6322 26.1532 27.7408 24.4227 29.2243 22.2024C30.7079 19.9822 31.4997 17.3718 31.4997 14.7015C31.495 11.1222 30.071 7.69081 27.54 5.15985C25.009 2.62888 21.5777 1.20489 17.9984 1.20013Z" fill="black"/>
    <path d="M17.9985 22.8027C16.337 22.8027 14.7128 22.31 13.3312 21.3869C11.9497 20.4638 10.873 19.1517 10.2371 17.6167C9.6013 16.0816 9.43493 14.3925 9.75908 12.7629C10.0832 11.1333 10.8833 9.63641 12.0582 8.46153C13.2331 7.28665 14.73 6.48655 16.3596 6.1624C17.9892 5.83825 19.6783 6.00462 21.2134 6.64046C22.7484 7.2763 24.0605 8.35306 24.9836 9.73457C25.9067 11.1161 26.3994 12.7403 26.3994 14.4018C26.3994 16.6299 25.5143 18.7667 23.9388 20.3421C22.3633 21.9176 20.2266 22.8027 17.9985 22.8027ZM17.9985 7.2011C16.5743 7.2011 15.1822 7.62342 13.998 8.41464C12.8138 9.20587 11.8909 10.3305 11.3459 11.6462C10.8009 12.962 10.6583 14.4098 10.9361 15.8066C11.214 17.2034 11.8998 18.4865 12.9068 19.4935C13.9139 20.5006 15.1969 21.1864 16.5937 21.4642C17.9905 21.742 19.4383 21.5994 20.7541 21.0544C22.0699 20.5094 23.1945 19.5865 23.9857 18.4023C24.7769 17.2182 25.1992 15.826 25.1992 14.4018C25.1992 12.4921 24.4406 10.6605 23.0902 9.31015C21.7398 7.95975 19.9083 7.2011 17.9985 7.2011Z" fill="black"/>
    <path d="M18.0006 20.4016C16.8138 20.4016 15.6536 20.0497 14.6669 19.3903C13.6801 18.731 12.9109 17.7938 12.4568 16.6973C12.0026 15.6009 11.8838 14.3943 12.1153 13.2303C12.3468 12.0663 12.9183 10.9971 13.7575 10.1579C14.5967 9.31873 15.6659 8.74723 16.8299 8.51569C17.994 8.28416 19.2005 8.40299 20.2969 8.85716C21.3934 9.31133 22.3306 10.0804 22.9899 11.0672C23.6493 12.054 24.0012 13.2142 24.0012 14.401C24.0012 15.9925 23.369 17.5187 22.2437 18.6441C21.1183 19.7694 19.5921 20.4016 18.0006 20.4016ZM18.0006 9.60052C17.0512 9.60052 16.123 9.88206 15.3336 10.4095C14.5442 10.937 13.9289 11.6868 13.5655 12.5639C13.2022 13.4411 13.1071 14.4063 13.2924 15.3375C13.4776 16.2687 13.9348 17.1241 14.6062 17.7955C15.2775 18.4668 16.1329 18.924 17.0641 19.1092C17.9953 19.2945 18.9605 19.1994 19.8377 18.8361C20.7148 18.4727 21.4646 17.8574 21.9921 17.068C22.5195 16.2786 22.8011 15.3504 22.8011 14.401C22.8011 13.1278 22.2953 11.9068 21.3951 11.0065C20.4948 10.1063 19.2738 9.60052 18.0006 9.60052Z" fill="black"/>
    <path d="M17.9985 4.20012C18.3299 4.20012 18.5986 3.93146 18.5986 3.60006C18.5986 3.26866 18.3299 3 17.9985 3C17.6671 3 17.3984 3.26866 17.3984 3.60006C17.3984 3.93146 17.6671 4.20012 17.9985 4.20012Z" fill="black"/>
    <path d="M35.4018 36.0035H0.598245C0.495956 36.0031 0.395444 35.9767 0.306255 35.9266C0.217066 35.8765 0.14216 35.8045 0.0886511 35.7173C0.0351423 35.6301 0.00480691 35.5307 0.000525853 35.4285C-0.0037552 35.3263 0.0181601 35.2247 0.0641907 35.1334L1.07229 33.1172C1.55025 32.1659 2.21546 31.3211 3.028 30.6333C3.84055 29.9456 4.78367 29.429 5.80077 29.1148C7.59831 28.5471 9.54183 28.6603 11.2613 29.4328C13.3762 30.4 15.6745 30.9007 18 30.9007C20.3255 30.9007 22.6238 30.4 24.7387 29.4328C26.458 28.6597 28.4018 28.5465 30.1992 29.1148C31.2163 29.429 32.1595 29.9456 32.972 30.6333C33.7845 31.3211 34.4497 32.1659 34.9277 33.1172L35.9358 35.1334C35.9818 35.2247 36.0038 35.3263 35.9995 35.4285C35.9952 35.5307 35.9649 35.6301 35.9113 35.7173C35.8578 35.8045 35.7829 35.8765 35.6937 35.9266C35.6046 35.9767 35.504 36.0031 35.4018 36.0035ZM1.57034 34.8033H34.4297L33.8296 33.6572C33.4243 32.8512 32.8603 32.1355 32.1715 31.5529C31.4827 30.9703 30.6832 30.5329 29.8212 30.2669C28.3047 29.7863 26.6644 29.8802 25.2127 30.5309C22.9407 31.5704 20.4715 32.1084 17.973 32.1084C15.4745 32.1084 13.0053 31.5704 10.7333 30.5309C9.28158 29.8802 7.6413 29.7863 6.1248 30.2669C5.26275 30.5329 4.46332 30.9703 3.77452 31.5529C3.08571 32.1355 2.52172 32.8512 2.1164 33.6572L1.57034 34.8033Z" fill="black"/>
</svg>
