<svg width="33" height="47" viewBox="0 0 33 47" fill="none" xmlns="http://www.w3.org/2000/svg">
<path d="M8.00989 14.3287C5.64224 13.2063 4.00488 10.7944 4.00488 8C4.00488 4.13401 7.13889 1 11.0049 1C14.8709 1 18.0049 4.13401 18.0049 8C18.0049 10.7944 16.3675 13.2063 13.9999 14.3287" stroke="#FFBF2F" stroke-miterlimit="10" stroke-linecap="round" stroke-linejoin="round"/>
<path d="M18.1357 15C19.9057 13.196 20.9997 10.727 20.9997 8C20.9997 5.273 19.9057 2.804 18.1357 1" stroke="#FFBF2F" stroke-miterlimit="10" stroke-linecap="round" stroke-linejoin="round"/>
<path d="M8 24C8 22.343 6.657 21 5 21C3.343 21 2 22.343 2 24V31C2 39.284 8.716 46 17 46C25.284 46 32 39.284 32 31V24C32 22.343 30.657 21 29 21C27.343 21 26 22.343 26 24V22C26 20.343 24.657 19 23 19C21.343 19 20 20.343 20 22V20C20 18.343 18.657 17 17 17C15.343 17 14 18.343 14 20V8C14 6.343 12.657 5 11 5C9.343 5 8 6.343 8 8V30V24Z" stroke="white" stroke-miterlimit="10" stroke-linecap="round" stroke-linejoin="round"/>
<path d="M3.864 1C2.094 2.804 1 5.273 1 8C1 10.727 2.094 13.196 3.864 15" stroke="#FFBF2F" stroke-miterlimit="10" stroke-linecap="round" stroke-linejoin="round"/>
</svg>
