<svg width="27" height="27" viewBox="0 0 27 27" fill="none" xmlns="http://www.w3.org/2000/svg">
    <g opacity="0.5">
        <path d="M13.0269 2.84076C7.04088 2.84076 2.1709 7.65929 2.1709 13.582C2.1709 19.5047 7.04088 24.3233 13.0269 24.3233C19.0128 24.3233 23.8828 19.5047 23.8828 13.582C23.8828 7.65929 19.0128 2.84076 13.0269 2.84076ZM13.0269 22.175C8.23829 22.175 4.34209 18.32 4.34209 13.582C4.34209 8.84405 8.23829 4.98901 13.0269 4.98901C17.8154 4.98901 21.7116 8.84405 21.7116 13.582C21.7116 18.32 17.8154 22.175 13.0269 22.175Z" fill="#808080"/>
        <path d="M16.0983 16.6196C15.7015 17.011 15.2328 17.3238 14.7174 17.5412C13.7896 17.9288 12.7544 17.9854 11.7891 17.7013C10.8237 17.4172 9.98811 16.8101 9.42516 15.9838L7.62524 17.1857C8.09469 17.8711 8.69194 18.4617 9.38499 18.9258C10.0903 19.3977 10.8827 19.7273 11.7169 19.8957C12.5819 20.0703 13.4736 20.0703 14.3386 19.8957C15.1727 19.727 15.965 19.3975 16.6704 18.9258C17.0102 18.6981 17.3348 18.4338 17.6323 18.1406C17.9275 17.8495 18.1968 17.5273 18.4291 17.1857L16.6292 15.9838C16.4731 16.212 16.2954 16.4249 16.0983 16.6196Z" fill="#808080"/>
        <path d="M16.8193 13.567C17.7144 13.567 18.4401 12.849 18.4401 11.9633C18.4401 11.0776 17.7144 10.3596 16.8193 10.3596C15.9241 10.3596 15.1985 11.0776 15.1985 11.9633C15.1985 12.849 15.9241 13.567 16.8193 13.567Z" fill="#808080"/>
        <path d="M9.22751 13.582C10.1269 13.582 10.8559 12.8606 10.8559 11.9708C10.8559 11.081 10.1269 10.3596 9.22751 10.3596C8.32818 10.3596 7.59912 11.081 7.59912 11.9708C7.59912 12.8606 8.32818 13.582 9.22751 13.582Z" fill="#808080"/>
    </g>
</svg>
