<svg width="4" height="10" viewBox="0 0 4 10" fill="none" xmlns="http://www.w3.org/2000/svg">
    <path d="M0.416667 8.28572H0.833333V5.46428H0.416667C0.186542 5.46428 0 5.28939 0 5.07365V4.14062C0 3.92488 0.186542 3.75 0.416667 3.75H2.75C2.98013 3.75 3.16667 3.92488 3.16667 4.14062V8.28572H3.58333C3.81346 8.28572 4 8.46061 4 8.67635V9.60938C4 9.82512 3.81346 10 3.58333 10H0.416667C0.186542 10 0 9.82512 0 9.60938V8.67635C0 8.46061 0.186542 8.28572 0.416667 8.28572ZM2 0C1.17156 0 0.5 0.62959 0.5 1.40625C0.5 2.18291 1.17156 2.8125 2 2.8125C2.82844 2.8125 3.5 2.18291 3.5 1.40625C3.5 0.62959 2.82842 0 2 0Z" fill="white"/>
</svg>
