<svg width="23" height="15" viewBox="0 0 23 15" fill="none" xmlns="http://www.w3.org/2000/svg">
<path d="M3.43027 0.199951C3.24277 0.217139 3.08339 0.324951 3.02527 0.474951L0.190268 7.57495C0.184643 7.58745 0.179019 7.59995 0.175268 7.61245L0.160268 7.62495C0.154643 7.63276 0.149019 7.64214 0.145268 7.64995V7.67495C0.139643 7.67964 0.135893 7.68276 0.130268 7.68745C0.130268 7.69526 0.130268 7.70464 0.130268 7.71245C0.124643 7.71714 0.120893 7.72026 0.115268 7.72495C0.115268 7.73276 0.115268 7.74214 0.115268 7.74995C0.115268 7.75464 0.115268 7.75776 0.115268 7.76245C0.0890186 7.83589 0.0890186 7.91401 0.115268 7.98745V13.8C0.115268 14.0203 0.330893 14.2 0.595268 14.2H21.7153C21.9796 14.2 22.1953 14.0203 22.1953 13.8V7.96245C22.229 7.87183 22.2234 7.77495 22.1803 7.68745C22.1746 7.68276 22.1709 7.67964 22.1653 7.67495V7.66245C22.1559 7.64526 22.1465 7.62808 22.1353 7.61245L19.2853 0.474951C19.2215 0.312451 19.0396 0.201514 18.8353 0.199951H3.47527C3.46027 0.199951 3.44527 0.199951 3.43027 0.199951ZM3.82027 0.999951H18.4903L21.0553 7.39995H14.5153C14.2509 7.39995 14.0353 7.57964 14.0353 7.79995C14.0353 9.12964 12.7509 10.2 11.1553 10.2C9.55964 10.2 8.27527 9.12964 8.27527 7.79995C8.27527 7.57964 8.05964 7.39995 7.79527 7.39995H1.25527L3.82027 0.999951ZM1.07527 8.19995H7.40527C7.65277 9.76558 9.21089 11 11.1553 11C13.0996 11 14.6578 9.76558 14.9053 8.19995H21.2353V13.4H1.07527V8.19995Z" fill="black"/>
</svg>
