
<svg width="30" height="37" viewBox="0 0 30 37" fill="none" xmlns="http://www.w3.org/2000/svg">
    <path d="M15.0913 27.4043H14.3082C10.0274 27.4043 6.54297 23.9299 6.54297 19.6616V7.74268C6.54297 3.47434 10.0274 0 14.3082 0H15.0913C19.372 0 22.8565 3.47434 22.8565 7.74268V19.6616C22.8565 23.9299 19.372 27.4043 15.0913 27.4043ZM14.3082 0.877358C10.5114 0.877358 7.42288 3.95688 7.42288 7.74268V19.6616C7.42288 23.4474 10.5114 26.5269 14.3082 26.5269H15.0913C18.8881 26.5269 21.9765 23.4474 21.9765 19.6616V7.74268C21.9765 3.95688 18.8881 0.877358 15.0913 0.877358H14.3082Z" fill="black"/>
    <path d="M14.7039 30.5326C11.6594 30.5326 8.79531 29.3525 6.64394 27.203C4.49256 25.0535 3.30469 22.2021 3.30469 19.1664V16.5826C3.30469 16.2974 3.53346 16.0693 3.81943 16.0693H5.36807V16.9467H4.18459V19.1664C4.18459 24.9482 8.9053 29.6552 14.7039 29.6552C20.5025 29.6552 25.2232 24.9482 25.2232 19.1664V16.9467H24.0397V16.0693H25.5884C25.8743 16.0693 26.1031 16.2974 26.1031 16.5826V19.1664C26.1031 22.2021 24.9196 25.0579 22.7638 27.203C20.6081 29.3481 17.7484 30.5326 14.7039 30.5326Z" fill="black"/>
    <path d="M15.1377 30.1816H14.2578V33.928H15.1377V30.1816Z" fill="black"/>
    <path d="M20.2382 36.6302H9.16016V35.4019C9.16016 34.3491 10.0225 33.4893 11.0784 33.4893H18.32C19.3759 33.4893 20.2382 34.3491 20.2382 35.4019V36.6302ZM10.0401 35.7528H19.3583V35.4019C19.3583 34.8316 18.8919 34.3666 18.32 34.3666H11.0784C10.5064 34.3666 10.0401 34.8316 10.0401 35.4019V35.7528Z" fill="black"/>
    <path d="M22.414 13.2617H6.98047V14.1391H22.414V13.2617Z" fill="black"/>
</svg>
