<svg width="10" height="10" viewBox="0 0 10 10" fill="none" xmlns="http://www.w3.org/2000/svg">
    <path d="M8.6002 0.200195H1.4002C0.73832 0.200195 0.200195 0.738289 0.200195 1.40013V6.79981C0.200195 7.46165 0.73832 7.99974 1.4002 7.99974H3.2002V9.57465C3.2002 9.75839 3.4102 9.86526 3.55832 9.75651L5.9002 7.99974H8.6002C9.26207 7.99974 9.8002 7.46165 9.8002 6.79981V1.40013C9.8002 0.738289 9.26207 0.200195 8.6002 0.200195ZM5.6002 5.14991C5.6002 5.2324 5.5327 5.2999 5.4502 5.2999H2.7502C2.6677 5.2999 2.6002 5.2324 2.6002 5.14991V4.84992C2.6002 4.76743 2.6677 4.69993 2.7502 4.69993H5.4502C5.5327 4.69993 5.6002 4.76743 5.6002 4.84992V5.14991ZM7.4002 3.35001C7.4002 3.43251 7.3327 3.5 7.2502 3.5H2.7502C2.6677 3.5 2.6002 3.43251 2.6002 3.35001V3.05003C2.6002 2.96753 2.6677 2.90004 2.7502 2.90004H7.2502C7.3327 2.90004 7.4002 2.96753 7.4002 3.05003V3.35001Z" fill="white"/>
</svg>
