<svg width="15.5" height="25" viewBox="0 0 15.5 25" fill="none" xmlns="http://www.w3.org/2000/svg">
    <path d="M15.4946 0.807617H14.1602V24.1077H15.4946V0.807617Z" fill="#4E4E4F"/>
    <path d="M14.3565 0.129483L6.11719 6.51367L6.93452 7.56851L15.1739 1.18432L14.3565 0.129483Z" fill="#4E4E4F"/>
    <path d="M7.1222 17.4414L6.30469 18.4961L14.3168 24.7064L15.1343 23.6517L7.1222 17.4414Z" fill="#4E4E4F"/>
    <path d="M1.33834 7.14746H0.00390625V18.466H1.33834V7.14746Z" fill="#4E4E4F"/>
    <path d="M7.21653 6.38379H0.671875V7.71822H7.21653V6.38379Z" fill="#4E4E4F"/>
    <path d="M7.21477 17.7666H0.675781V19.101H7.21477V17.7666Z" fill="#4E4E4F"/>
    <path d="M7.3813 6.91895H6.04688V18.671H7.3813V6.91895Z" fill="#4E4E4F"/>
    <path d="M14.7683 1.48459C15.1688 1.48459 15.4936 1.15225 15.4936 0.742294C15.4936 0.332336 15.1688 0 14.7683 0C14.3677 0 14.043 0.332336 14.043 0.742294C14.043 1.15225 14.3677 1.48459 14.7683 1.48459Z" fill="#4E4E4F"/>
    <path d="M14.7683 24.8586C15.1688 24.8586 15.4936 24.5263 15.4936 24.1163C15.4936 23.7064 15.1688 23.374 14.7683 23.374C14.3677 23.374 14.043 23.7064 14.043 24.1163C14.043 24.5263 14.3677 24.8586 14.7683 24.8586Z" fill="#4E4E4F"/>
</svg>
