<svg width="9" height="12" viewBox="0 0 9 12" fill="none" xmlns="http://www.w3.org/2000/svg">
    <path d="M4.13604 0C2.26478 0 1.05276 0.766477 0.101201 2.13342C-0.0714151 2.38139 -0.0181977 2.72137 0.222593 2.90391L1.23391 3.67052C1.47709 3.85486 1.8231 3.81176 2.01349 3.5733C2.60073 2.83781 3.03634 2.41434 3.95362 2.41434C4.67485 2.41434 5.56693 2.87838 5.56693 3.57757C5.56693 4.10613 5.13048 4.37759 4.41835 4.77673C3.5879 5.2422 2.48895 5.82148 2.48895 7.27059V7.5C2.48895 7.81066 2.74085 8.0625 3.0516 8.0625H4.75059C5.06134 8.0625 5.31325 7.81066 5.31325 7.5V7.3647C5.31325 6.36016 8.25 6.31833 8.25 3.6C8.25002 1.55288 6.12597 0 4.13604 0ZM3.90111 8.75295C3.00565 8.75295 2.27714 9.48127 2.27714 10.3765C2.27714 11.2717 3.00565 12 3.90111 12C4.79657 12 5.52508 11.2717 5.52508 10.3765C5.52508 9.48124 4.79657 8.75295 3.90111 8.75295Z" fill="white"/>
</svg>
