<svg width="42" height="35" viewBox="0 0 42 35" fill="none" xmlns="http://www.w3.org/2000/svg">
    <path d="M3.06861 0C1.37287 0 0 1.37345 0 3.06976V24.9012C0 26.5819 1.3723 27.9559 3.06861 27.9559H15.7774L14.937 30.9125H14.4368C13.7911 30.9125 13.258 31.4462 13.258 32.0925V33.4821C13.258 34.1284 13.7911 34.662 14.4368 34.662H26.6772C27.3229 34.662 27.856 34.1284 27.856 33.4821V32.0925C27.856 31.4462 27.3229 30.9125 26.6772 30.9125H26.1764L25.3367 27.9559H37.9484C39.6441 27.9559 41.017 26.5819 41.017 24.9012V3.06976C41.017 1.37287 39.6441 0 37.9484 0H3.06861ZM3.06861 0.92064H37.9484C39.1595 0.92064 40.1125 1.85803 40.1125 3.06976V24.9012C40.1125 26.0967 39.1595 27.0515 37.9484 27.0515H3.06861C1.85745 27.0515 0.904469 26.0973 0.904469 24.9012V3.06976C0.904469 1.85803 1.85745 0.92064 3.06861 0.92064ZM3.06861 2.82719C2.82603 2.84394 2.63197 3.05417 2.63197 3.28V24.6754C2.63197 24.9179 2.85895 25.1276 3.0842 25.1276H37.9478C38.1742 25.1276 38.4001 24.9179 38.4001 24.6754V3.28C38.4001 3.05359 38.206 2.84394 37.9802 2.82719H37.9472H3.0842H3.06861ZM3.55261 3.73281H37.48V24.2237H3.55261V3.73281ZM20.5082 6.59292C16.6807 6.59292 13.2089 8.11249 10.6578 10.5683C10.4482 10.7138 10.4314 11.0535 10.6093 11.2308C10.7704 11.4243 11.1101 11.4087 11.2874 11.2146C13.6779 8.91993 16.9233 7.49738 20.5082 7.49738C24.0932 7.49738 27.3229 8.91993 29.729 11.2146C29.8902 11.4087 30.2292 11.4243 30.4071 11.2308C30.5683 11.0529 30.5527 10.7133 30.343 10.5683C27.7907 8.11249 24.3352 6.59292 20.5082 6.59292ZM20.5082 10.9882C17.8924 10.9882 15.5186 12.0064 13.7576 13.671C13.548 13.8327 13.5318 14.1556 13.7097 14.3496C13.8876 14.5281 14.2266 14.5113 14.3877 14.3173C15.987 12.8139 18.1344 11.9094 20.5082 11.9094C22.882 11.9094 25.0138 12.8139 26.6119 14.3173C26.7898 14.5113 27.1127 14.5275 27.2906 14.3496C27.4679 14.1556 27.4517 13.8327 27.2421 13.671C25.4816 12.0064 23.124 10.9882 20.5082 10.9882ZM20.5082 14.818C18.958 14.818 17.5366 15.4164 16.471 16.37C16.2937 16.5311 16.2775 16.8545 16.4387 17.0318C16.6004 17.2103 16.9077 17.2259 17.0844 17.0648C17.9889 16.24 19.1839 15.7393 20.5082 15.7393C21.8164 15.7393 23.0114 16.24 23.9153 17.0648C24.0932 17.2259 24.3999 17.2103 24.561 17.0318C24.7221 16.854 24.7065 16.5311 24.5286 16.37C23.463 15.4164 22.0584 14.818 20.5082 14.818ZM20.5082 17.9525C19.572 17.9525 18.7963 18.7287 18.7963 19.6661C18.7963 20.6035 19.572 21.3786 20.5082 21.3786C21.4444 21.3786 22.2201 20.6035 22.2201 19.6661C22.2201 18.7287 21.4444 17.9525 20.5082 17.9525ZM20.5082 18.8743C20.9604 18.8743 21.2995 19.2295 21.2995 19.6661C21.2995 20.1184 20.9604 20.4736 20.5082 20.4736C20.056 20.4736 19.7169 20.1184 19.7169 19.6661C19.7169 19.2295 20.056 18.8743 20.5082 18.8743ZM16.7136 27.9559H24.3837L25.2396 30.9125H15.8738L16.7136 27.9559ZM14.4363 31.8175H26.6766C26.8378 31.8175 26.951 31.9313 26.951 32.093V33.4827C26.951 33.6438 26.8383 33.757 26.6766 33.757H14.4363C14.2751 33.757 14.1781 33.6444 14.1781 33.4827V32.093C14.1781 31.9313 14.2751 31.8175 14.4363 31.8175Z" fill="black"/>
</svg>
