<svg width="18" height="18" viewBox="0 0 18 18" fill="none" xmlns="http://www.w3.org/2000/svg">
<path d="M17.1554 16.8092L10.7862 10.4538C11.8634 9.31172 12.4628 7.80075 12.4615 6.23077C12.4615 4.99844 12.0961 3.79379 11.4115 2.76914C10.7268 1.7445 9.75371 0.945884 8.61518 0.474292C7.47666 0.00269969 6.22386 -0.12069 5.01521 0.119725C3.80656 0.360141 2.69634 0.953564 1.82495 1.82495C0.953564 2.69634 0.360141 3.80656 0.119725 5.01521C-0.12069 6.22386 0.00269982 7.47666 0.474292 8.61518C0.945884 9.75371 1.7445 10.7268 2.76914 11.4115C3.79379 12.0961 4.99844 12.4615 6.23077 12.4615C7.48759 12.4667 8.71552 12.0848 9.74769 11.3677L16.1723 17.7923C16.3044 17.9248 16.4837 17.9995 16.6708 18C16.8534 17.9974 17.0276 17.9227 17.1554 17.7923C17.2831 17.6606 17.3545 17.4843 17.3545 17.3008C17.3545 17.1173 17.2831 16.941 17.1554 16.8092ZM1.38462 6.23077C1.38462 5.27229 1.66884 4.33534 2.20134 3.53839C2.73384 2.74145 3.49071 2.1203 4.37623 1.75351C5.26175 1.38672 6.23615 1.29075 7.17621 1.47774C8.11627 1.66473 8.97977 2.12628 9.65752 2.80402C10.3353 3.48177 10.7968 4.34527 10.9838 5.28533C11.1708 6.2254 11.0748 7.1998 10.708 8.08531C10.3412 8.97083 9.72009 9.7277 8.92315 10.2602C8.1262 10.7927 7.18925 11.0769 6.23077 11.0769C4.94661 11.0733 3.7161 10.5615 2.80806 9.65348C1.90002 8.74544 1.38827 7.51493 1.38462 6.23077Z" fill="#404041"/>
</svg>
