<svg width="37" height="39" viewBox="0 0 37 39" fill="none" xmlns="http://www.w3.org/2000/svg">
    <path fill-rule="evenodd" clip-rule="evenodd" d="M0.999948 0.5H0.131836L0.567457 1.2509L21.4522 37.2509L21.888 38.0022L22.3188 37.248L28.3955 26.6104L28.5379 26.3611L28.3944 26.1125L13.7608 0.75012L13.6165 0.5H13.3278H0.999948ZM21.8813 35.9978L1.86806 1.5H13.039L27.3848 26.3636L21.8813 35.9978ZM30.5076 13.9804C34.0931 13.9804 36.9996 11.0786 36.9996 7.499C36.9996 3.91941 34.0931 1.01758 30.5076 1.01758C26.9222 1.01758 24.0156 3.91941 24.0156 7.499C24.0156 11.0786 26.9222 13.9804 30.5076 13.9804Z" fill="black"/>
</svg>
