<?xml version="1.0" encoding="UTF-8" standalone="no" ?>
<!DOCTYPE svg PUBLIC "-//W3C//DTD SVG 1.1//EN" "http://www.w3.org/Graphics/SVG/1.1/DTD/svg11.dtd">
<svg xmlns="http://www.w3.org/2000/svg" xmlns:xlink="http://www.w3.org/1999/xlink" version="1.1" width="350" height="350" viewBox="0 0 350 350" xml:space="preserve">
<desc>Created with Fabric.js 1.7.22</desc>
<defs>
</defs>
<g id="icon" style="stroke: none; stroke-width: 1; stroke-dasharray: none; stroke-linecap: butt; stroke-linejoin: miter; stroke-miterlimit: 10; fill: none; fill-rule: nonzero; opacity: 1;" transform="translate(-1.9444444444444287 -1.9444444444444287) scale(3.89 3.89)" >
	<path d="M 11.46 88.114 c -1.676 0 -3.352 -0.638 -4.627 -1.913 l -3.034 -3.034 c -2.551 -2.551 -2.551 -6.703 0 -9.254 L 29.051 48.66 c -1.75 -7.659 2.329 -15.738 9.685 -18.784 c 4.756 -1.97 10.251 -1.552 14.698 1.119 c 0.528 0.317 0.881 0.859 0.956 1.47 c 0.075 0.611 -0.136 1.223 -0.571 1.658 L 41.356 46.587 c -0.274 0.274 -0.426 0.64 -0.426 1.028 s 0.151 0.754 0.426 1.028 c 0.55 0.551 1.508 0.551 2.057 0 l 12.466 -12.465 c 0.436 -0.436 1.043 -0.646 1.657 -0.571 c 0.61 0.075 1.152 0.426 1.47 0.954 c 0.473 0.785 0.828 1.476 1.118 2.174 c 3.453 8.34 -0.521 17.935 -8.859 21.389 c -3.142 1.301 -6.62 1.584 -9.923 0.823 L 16.088 86.201 C 14.812 87.477 13.136 88.114 11.46 88.114 z M 44.978 32.627 c -1.591 0 -3.186 0.313 -4.711 0.944 c -5.847 2.421 -8.954 9.05 -7.075 15.092 c 0.221 0.709 0.03 1.482 -0.496 2.008 L 6.627 76.741 c -0.992 0.992 -0.992 2.605 0 3.598 l 3.034 3.034 c 0.991 0.991 2.605 0.993 3.598 0 l 26.071 -26.071 c 0.526 -0.525 1.301 -0.717 2.008 -0.495 c 2.754 0.855 5.734 0.723 8.395 -0.378 c 6.056 -2.509 9.065 -9.304 6.975 -15.423 L 46.242 51.472 c -1.03 1.03 -2.4 1.599 -3.857 1.599 s -2.827 -0.568 -3.857 -1.599 c -1.03 -1.029 -1.597 -2.399 -1.597 -3.856 s 0.567 -2.827 1.598 -3.857 l 10.454 -10.454 C 47.683 32.854 46.331 32.627 44.978 32.627 z" style="stroke: none; stroke-width: 1; stroke-dasharray: none; stroke-linecap: butt; stroke-linejoin: miter; stroke-miterlimit: 10; fill: white;; fill-rule: nonzero; opacity: 1;" transform=" matrix(1 0 0 1 0 0) " stroke-linecap="round" />
	<path d="M 49.857 90 h -9.714 c -4.251 -0.003 -7.709 -3.461 -7.708 -7.709 c 0 -1.066 -0.43 -1.856 -1.315 -2.418 c -0.522 -0.331 -0.861 -0.884 -0.92 -1.499 c -0.059 -0.615 0.169 -1.223 0.619 -1.646 l 9.987 -9.411 c 0.431 -0.407 1.019 -0.605 1.61 -0.53 c 3.715 0.447 7.512 -0.076 10.981 -1.514 c 5.406 -2.239 9.619 -6.458 11.865 -11.88 c 2.245 -5.422 2.249 -11.385 0.01 -16.79 c -2.239 -5.406 -6.458 -9.62 -11.88 -11.866 c -5.423 -2.247 -11.385 -2.249 -16.79 -0.01 c -9.037 3.743 -14.545 13.144 -13.396 22.86 c 0.072 0.608 -0.139 1.216 -0.572 1.649 l -9.641 9.646 c -0.411 0.409 -0.978 0.619 -1.557 0.581 c -0.579 -0.042 -1.111 -0.332 -1.458 -0.797 c -0.555 -0.741 -1.298 -1.102 -2.271 -1.102 c -2.06 0 -3.996 -0.802 -5.451 -2.258 S 0 51.915 0 49.855 l 0 -9.712 c 0 -2.059 0.801 -3.995 2.257 -5.451 c 1.457 -1.456 3.393 -2.258 5.451 -2.258 c 0 0 0.001 0 0.001 0 c 1.676 0 2.386 -1.113 2.66 -1.777 c 0.276 -0.667 0.562 -1.958 -0.624 -3.142 c -1.457 -1.458 -2.258 -3.393 -2.257 -5.452 c 0 -2.059 0.802 -3.996 2.258 -5.451 l 6.867 -6.867 c 1.457 -1.456 3.391 -2.258 5.447 -2.258 c 0.002 0 0.003 0 0.005 0 c 2.058 0 3.994 0.802 5.45 2.259 c 1.183 1.183 2.475 0.897 3.14 0.623 c 0.664 -0.275 1.778 -0.986 1.778 -2.662 C 32.438 3.458 35.895 0 40.142 0 h 9.714 c 2.06 0 3.995 0.802 5.45 2.258 c 1.456 1.455 2.258 3.39 2.258 5.449 c 0 1.74 1.243 2.442 1.778 2.663 c 0.538 0.225 1.911 0.606 3.141 -0.623 c 3.003 -3.003 7.893 -3.006 10.899 -0.003 l 6.87 6.87 c 1.457 1.456 2.259 3.392 2.259 5.451 c 0 2.06 -0.803 3.996 -2.259 5.452 c -1.229 1.229 -0.846 2.604 -0.624 3.138 c 0.223 0.538 0.924 1.781 2.662 1.781 c 4.251 0.001 7.708 3.458 7.709 7.707 v 9.714 c -0.003 4.245 -3.459 7.702 -7.704 7.709 h -0.001 c -1.679 0 -2.391 1.114 -2.666 1.778 s -0.561 1.956 0.624 3.141 c 3.004 3.005 3.005 7.895 0.003 10.899 l -6.871 6.87 c -3.006 3.001 -7.896 3.003 -10.897 0.003 c -1.186 -1.186 -2.479 -0.901 -3.145 -0.627 c -0.663 0.274 -1.778 0.987 -1.778 2.662 c 0.001 2.057 -0.801 3.993 -2.258 5.45 c -0.723 0.724 -1.563 1.286 -2.499 1.674 S 50.88 90 49.857 90 z M 35.11 78.181 c 0.866 1.148 1.326 2.552 1.325 4.11 c 0 2.044 1.664 3.708 3.71 3.709 h 9.712 c 0.494 0 0.972 -0.094 1.419 -0.279 c 0.448 -0.186 0.853 -0.457 1.202 -0.807 c 0.701 -0.701 1.087 -1.632 1.086 -2.621 c 0 -3.393 2.195 -5.51 4.249 -6.359 c 2.056 -0.849 5.105 -0.903 7.501 1.494 c 1.444 1.441 3.797 1.442 5.243 -0.003 l 6.869 -6.869 c 1.443 -1.445 1.442 -3.798 -0.002 -5.243 c -2.397 -2.397 -2.342 -5.446 -1.491 -7.5 s 2.968 -4.247 6.357 -4.247 c 0.001 0 0.002 0 0.003 0 c 2.04 -0.003 3.705 -1.668 3.706 -3.71 v -9.713 c -0.001 -2.043 -1.663 -3.707 -3.707 -3.708 c -3.395 0 -5.51 -2.195 -6.359 -4.25 c -0.852 -2.049 -0.909 -5.098 1.491 -7.498 c 0.701 -0.701 1.087 -1.632 1.087 -2.623 c 0 -0.99 -0.386 -1.921 -1.087 -2.622 l -6.869 -6.87 c -1.446 -1.444 -3.798 -1.443 -5.244 0.002 c -2.4 2.401 -5.449 2.344 -7.501 1.49 c -2.05 -0.847 -4.246 -2.964 -4.246 -6.358 c 0 -0.99 -0.386 -1.921 -1.086 -2.621 C 51.778 4.386 50.847 4 49.856 4 h -9.714 c -2.043 0 -3.706 1.665 -3.708 3.71 c 0 3.389 -2.194 5.505 -4.248 6.356 c -2.054 0.851 -5.103 0.906 -7.5 -1.49 c -0.701 -0.702 -1.632 -1.087 -2.622 -1.087 c -0.001 0 -0.001 0 -0.002 0 c -0.99 0 -1.92 0.386 -2.621 1.086 l -6.867 6.867 c -0.701 0.701 -1.086 1.632 -1.086 2.623 c 0 0.991 0.385 1.922 1.086 2.623 c 2.398 2.397 2.343 5.446 1.491 7.5 c -0.847 2.052 -2.962 4.247 -6.355 4.248 c -0.001 0 -0.001 0 -0.002 0 c -0.99 0 -1.921 0.386 -2.623 1.087 C 4.386 38.222 4 39.153 4 40.143 l 0 9.712 c 0 0.991 0.386 1.923 1.086 2.623 s 1.631 1.086 2.623 1.086 c 1.418 0 2.723 0.391 3.82 1.126 l 7.609 -7.613 c -0.889 -11.135 5.554 -21.746 15.934 -26.045 c 6.392 -2.648 13.442 -2.645 19.852 0.01 S 66.32 28.68 68.968 35.073 c 2.648 6.393 2.645 13.443 -0.01 19.851 c -2.654 6.409 -7.637 11.396 -14.029 14.045 c -3.81 1.578 -7.957 2.225 -12.044 1.886 L 35.11 78.181 z" style="stroke: none; stroke-width: 1; stroke-dasharray: none; stroke-linecap: butt; stroke-linejoin: miter; stroke-miterlimit: 10; fill: white; fill-rule: nonzero; opacity: 1;" transform=" matrix(1 0 0 1 0 0) " stroke-linecap="round" />
</g>
</svg>