<svg width="24" height="25" viewBox="0 0 24 25" fill="none" xmlns="http://www.w3.org/2000/svg">
<path d="M15.4946 0.807617H14.1602V24.1077H15.4946V0.807617Z" fill="#4E4E4F"/>
<path d="M14.3565 0.129483L6.11719 6.51367L6.93452 7.56851L15.1739 1.18432L14.3565 0.129483Z" fill="#4E4E4F"/>
<path d="M7.1222 17.4414L6.30469 18.4961L14.3168 24.7064L15.1343 23.6517L7.1222 17.4414Z" fill="#4E4E4F"/>
<path d="M1.33834 7.14746H0.00390625V18.466H1.33834V7.14746Z" fill="#4E4E4F"/>
<path d="M7.21653 6.38379H0.671875V7.71822H7.21653V6.38379Z" fill="#4E4E4F"/>
<path d="M7.21477 17.7666H0.675781V19.101H7.21477V17.7666Z" fill="#4E4E4F"/>
<path d="M7.3813 6.91895H6.04688V18.671H7.3813V6.91895Z" fill="#4E4E4F"/>
<path d="M18.6994 20.5916L18.1838 19.362C20.966 18.1975 22.6659 15.5457 22.6659 12.4433C22.6659 9.341 20.9122 6.70331 18.1328 5.56437L18.6371 4.3291C21.9264 5.66636 23.9833 8.78287 24.0003 12.4377C24.0173 16.0925 21.9888 19.2146 18.6994 20.5916Z" fill="#4E4E4F"/>
<path d="M18.8101 15.6669L17.8496 14.7319C18.1629 14.4124 18.41 14.0341 18.5767 13.6188C18.7435 13.2035 18.8266 12.7594 18.8214 12.312C18.8161 11.8645 18.7225 11.4225 18.5461 11.0112C18.3696 10.6 18.1137 10.2276 17.793 9.91553L18.7194 8.95508C19.1697 9.38983 19.5292 9.9096 19.7771 10.4843C20.0251 11.0589 20.1565 11.6771 20.1639 12.3029C20.1713 12.9288 20.0544 13.5498 19.8201 14.1302C19.5858 14.7105 19.2386 15.2386 18.7987 15.6839L18.8101 15.6669Z" fill="#4E4E4F"/>
<path d="M14.7683 1.48459C15.1688 1.48459 15.4936 1.15225 15.4936 0.742294C15.4936 0.332336 15.1688 0 14.7683 0C14.3677 0 14.043 0.332336 14.043 0.742294C14.043 1.15225 14.3677 1.48459 14.7683 1.48459Z" fill="#4E4E4F"/>
<path d="M14.7683 24.8586C15.1688 24.8586 15.4936 24.5263 15.4936 24.1163C15.4936 23.7064 15.1688 23.374 14.7683 23.374C14.3677 23.374 14.043 23.7064 14.043 24.1163C14.043 24.5263 14.3677 24.8586 14.7683 24.8586Z" fill="#4E4E4F"/>
<path d="M0.733107 7.86838C1.13368 7.86838 1.4584 7.53604 1.4584 7.12608C1.4584 6.71613 1.13368 6.38379 0.733107 6.38379C0.332538 6.38379 0.0078125 6.71613 0.0078125 7.12608C0.0078125 7.53604 0.332538 7.86838 0.733107 7.86838Z" fill="#4E4E4F"/>
<path d="M0.725295 19.1018C1.12586 19.1018 1.45059 18.7694 1.45059 18.3595C1.45059 17.9495 1.12586 17.6172 0.725295 17.6172C0.324726 17.6172 0 17.9495 0 18.3595C0 18.7694 0.324726 19.1018 0.725295 19.1018Z" fill="#4E4E4F"/>
<path d="M18.3014 10.1535C18.6707 10.1535 18.9701 9.84652 18.9701 9.46786C18.9701 9.08919 18.6707 8.78223 18.3014 8.78223C17.9322 8.78223 17.6328 9.08919 17.6328 9.46786C17.6328 9.84652 17.9322 10.1535 18.3014 10.1535Z" fill="#4E4E4F"/>
<path d="M18.3093 15.9172C18.6785 15.9172 18.9779 15.6102 18.9779 15.2315C18.9779 14.8529 18.6785 14.5459 18.3093 14.5459C17.94 14.5459 17.6406 14.8529 17.6406 15.2315C17.6406 15.6102 17.94 15.9172 18.3093 15.9172Z" fill="#4E4E4F"/>
<path d="M18.386 5.61851C18.7459 5.61851 19.0376 5.31916 19.0376 4.94988C19.0376 4.58061 18.7459 4.28125 18.386 4.28125C18.0261 4.28125 17.7344 4.58061 17.7344 4.94988C17.7344 5.31916 18.0261 5.61851 18.386 5.61851Z" fill="#4E4E4F"/>
<path d="M18.386 20.6683C18.7459 20.6683 19.0376 20.369 19.0376 19.9997C19.0376 19.6304 18.7459 19.3311 18.386 19.3311C18.0261 19.3311 17.7344 19.6304 17.7344 19.9997C17.7344 20.369 18.0261 20.6683 18.386 20.6683Z" fill="#4E4E4F"/>
</svg>
