<svg width="44" height="46" viewBox="0 0 44 46" fill="none" xmlns="http://www.w3.org/2000/svg">
<path d="M22.8126 17.3094C23.6406 15.8744 23.1496 14.0394 21.7146 13.2114C20.2796 12.3834 18.4446 12.8744 17.6166 14.3094L12.6166 22.9694C8.47457 30.1434 10.9326 39.3174 18.1066 43.4594C25.2806 47.6014 34.4545 45.1434 38.5965 37.9694L42.5965 31.0414C43.4245 29.6064 42.9336 27.7714 41.4986 26.9434C40.0636 26.1154 38.2286 26.6064 37.4006 28.0414L38.4006 26.3094C39.2286 24.8744 38.7375 23.0394 37.3025 22.2114C35.8675 21.3834 34.0326 21.8744 33.2046 23.3094L34.2046 21.5774C35.0326 20.1424 34.5416 18.3074 33.1066 17.4794C31.6716 16.6514 29.8366 17.1424 29.0086 18.5774L36.0086 6.45341C36.8366 5.01841 36.3456 3.18341 34.9106 2.35541C33.4756 1.52741 31.6406 2.01841 30.8126 3.45341L19.3126 23.3724L22.8126 17.3094Z" stroke="white" stroke-miterlimit="10" stroke-linecap="round" stroke-linejoin="round"/>
<path d="M24.556 4.39727C17.054 0.568267 7.814 1.32627 1 6.67027" stroke="#FFBF2F" stroke-miterlimit="10" stroke-linecap="round" stroke-linejoin="round"/>
<path d="M25 1V5L21 6" stroke="#FFBF2F" stroke-miterlimit="10" stroke-linecap="round" stroke-linejoin="round"/>
</svg>
