<svg width="38" height="46" viewBox="0 0 38 46" fill="none" xmlns="http://www.w3.org/2000/svg">
<path d="M9.40272 25.8372C8.57472 24.4022 6.7397 23.9102 5.3047 24.7392C3.8697 25.5672 3.37774 27.4022 4.20674 28.8372L9.20674 37.4972C13.3487 44.6712 22.5227 47.1302 29.6967 42.9872C36.8707 38.8452 39.3297 29.6712 35.1867 22.4972L31.1867 15.5692C30.3587 14.1342 28.5237 13.6422 27.0887 14.4712C25.6537 15.2992 25.1627 17.1342 25.9907 18.5692L24.9907 16.8372C24.1627 15.4022 22.3277 14.9102 20.8927 15.7392C19.4577 16.5672 18.9657 18.4022 19.7947 19.8372L18.7947 18.1052C17.9667 16.6702 16.1317 16.1782 14.6967 17.0072C13.2617 17.8352 12.7697 19.6702 13.5987 21.1052L6.5987 8.98119C5.7707 7.54619 3.93574 7.05419 2.50074 7.88319C1.06574 8.71119 0.57372 10.5462 1.40272 11.9812L12.9027 31.9002L9.40272 25.8372Z" stroke="white" stroke-miterlimit="10" stroke-linecap="round" stroke-linejoin="round"/>
<path d="M10.1992 4.3967C18.4642 0.177702 28.8392 1.5267 35.7552 8.4427" stroke="#FFBF2F" stroke-miterlimit="10" stroke-linecap="round" stroke-linejoin="round"/>
<path d="M10.1992 1V5L14.1992 6" stroke="#FFBF2F" stroke-miterlimit="10" stroke-linecap="round" stroke-linejoin="round"/>
</svg>
