<svg width="32" height="47" viewBox="0 0 32 47" fill="none" xmlns="http://www.w3.org/2000/svg">
<path d="M7.005 14.3287C4.63736 13.2063 3 10.7944 3 8C3 4.13401 6.13401 1 10 1C13.866 1 17 4.13401 17 8C17 10.7944 15.3626 13.2063 12.995 14.3287" stroke="#FFBF2F" stroke-miterlimit="10" stroke-linecap="round" stroke-linejoin="round"/>
<path d="M7 24C7 22.343 5.657 21 4 21C2.343 21 1 22.343 1 24V31C1 39.284 7.716 46 16 46C24.284 46 31 39.284 31 31V24C31 22.343 29.657 21 28 21C26.343 21 25 22.343 25 24V22C25 20.343 23.657 19 22 19C20.343 19 19 20.343 19 22V20C19 18.343 17.657 17 16 17C14.343 17 13 18.343 13 20V8C13 6.343 11.657 5 10 5C8.343 5 7 6.343 7 8V30V24Z" stroke="white" stroke-miterlimit="10" stroke-linecap="round" stroke-linejoin="round"/>
</svg>
