<svg xmlns="http://www.w3.org/2000/svg" width="32" height="32" enable-background="new 0 0 32 32" viewBox="0 0 32 32"><path fill="#263238" d="M29.5 8.083c-.276 0-.5-.224-.5-.5V5.5C29 5.225 28.776 5 28.5 5h-7C21.224 5 21 4.776 21 4.5S21.224 4 21.5 4h7C29.327 4 30 4.673 30 5.5v2.083C30 7.859 29.776 8.083 29.5 8.083zM5.5 31c-.055 0-.111-.009-.166-.028C5.134 30.901 5 30.712 5 30.5V26H2.5C1.673 26 1 25.327 1 24.5v-19C1 4.673 1.673 4 2.5 4h12C14.776 4 15 4.224 15 4.5S14.776 5 14.5 5h-12C2.224 5 2 5.225 2 5.5v19C2 24.775 2.224 25 2.5 25h3C5.776 25 6 25.224 6 25.5v3.574l3.109-3.887C9.205 25.069 9.348 25 9.5 25h19c.276 0 .5-.225.5-.5v-1c0-.276.224-.5.5-.5s.5.224.5.5v1c0 .827-.673 1.5-1.5 1.5H9.74l-3.85 4.813C5.793 30.934 5.649 31 5.5 31z"/><path fill="#263238" d="M28,22h-9.5c-0.512,0-1.044-0.253-1.608-0.521C16.397,21.243,15.884,21,15.5,21h-2
				c-0.276,0-0.5-0.224-0.5-0.5s0.224-0.5,0.5-0.5h2c0.61,0,1.226,0.293,1.822,0.576C17.76,20.784,18.214,21,18.5,21H28
				c0.551,0,1-0.448,1-1s-0.449-1-1-1c-0.276,0-0.5-0.224-0.5-0.5S27.724,18,28,18h0.5c0.551,0,1-0.448,1-1s-0.449-1-1-1
				c-0.276,0-0.5-0.224-0.5-0.5s0.224-0.5,0.5-0.5H29c0.551,0,1-0.448,1-1s-0.449-1-1-1h-0.5c-0.276,0-0.5-0.224-0.5-0.5
				s0.224-0.5,0.5-0.5c0.551,0,1-0.448,1-1s-0.449-1-1-1h-9.504c-0.154,0-0.299-0.071-0.394-0.192s-0.128-0.279-0.091-0.429
				c0.005-0.02,0.485-1.975,0.485-4.313c0-2.601-1.038-2.995-1.996-3.055V5.5c0,0.077-0.018,0.154-0.053,0.224l-2.074,4.149
				c-0.123,0.246-0.423,0.348-0.671,0.224c-0.247-0.123-0.347-0.424-0.224-0.671L16,5.382V1.5C16,1.224,16.224,1,16.5,1
				c1.046,0,3.496,0,3.496,4.065c0,1.679-0.229,3.144-0.381,3.935H28.5c1.103,0,2,0.897,2,2c0,0.489-0.177,0.938-0.47,1.286
				C30.611,12.637,31,13.273,31,14s-0.389,1.363-0.97,1.714c0.293,0.348,0.47,0.797,0.47,1.286c0,0.727-0.389,1.363-0.97,1.714
				C29.823,19.062,30,19.511,30,20C30,21.103,29.103,22,28,22z"/><path fill="#263238" d="M13.551,22H10v-1h3v-9h-3v-1h3.551C13.828,11,14,11.207,14,11.482v10C14,21.76,13.828,22,13.551,22z"/><path fill="#263238" d="M4.551 23c-.275 0-.5-.224-.5-.5l0 0c0-.276.225-.5.5-.5H10V12H4.551c-.275 0-.5-.224-.5-.5l0 0c0-.276.225-.5.5-.5h6C10.828 11 11 11.207 11 11.482v11C11 22.76 10.828 23 10.551 23H4.551zM29 16h-5c-1.103 0-2-.897-2-2s.897-2 2-2h5c1.103 0 2 .897 2 2S30.103 16 29 16zM24 13c-.551 0-1 .448-1 1s.449 1 1 1h5c.551 0 1-.448 1-1s-.449-1-1-1H24zM28 22h-3c-1.103 0-2-.897-2-2s.897-2 2-2h3c1.103 0 2 .897 2 2S29.103 22 28 22zM25 19c-.551 0-1 .448-1 1s.449 1 1 1h3c.551 0 1-.448 1-1s-.449-1-1-1H25z"/><path fill="#263238" d="M28.5 19h-4c-1.103 0-2-.897-2-2s.897-2 2-2h4c1.103 0 2 .897 2 2S29.603 19 28.5 19zM24.5 16c-.551 0-1 .448-1 1s.449 1 1 1h4c.551 0 1-.448 1-1s-.449-1-1-1H24.5zM28.5 13h-4c-1.103 0-2-.897-2-2s.897-2 2-2h4c1.103 0 2 .897 2 2S29.603 13 28.5 13zM24.5 10c-.551 0-1 .448-1 1s.449 1 1 1h4c.551 0 1-.448 1-1s-.449-1-1-1H24.5zM17.608 17.054c-.227 0-.433-.155-.486-.387-.063-.269.104-.537.373-.601 1.16-.271 2.003-1.266 2.256-2.661.256-1.414-.183-2.857-1.044-3.432-.23-.153-.292-.464-.139-.693.153-.23.462-.292.693-.139 1.216.811 1.808 2.596 1.474 4.442-.326 1.8-1.452 3.092-3.012 3.457C17.684 17.05 17.646 17.054 17.608 17.054z"/></svg>