<svg width="13" height="11" viewBox="0 0 13 11" fill="none" xmlns="http://www.w3.org/2000/svg">
    <path d="M11.2758 3.18134C11.2837 3.2913 11.2837 3.40129 11.2837 3.51125C11.2837 6.8652 8.69208 10.7297 3.95529 10.7297C2.49597 10.7297 1.14034 10.3134 0 9.59082C0.207341 9.61437 0.40668 9.62223 0.621999 9.62223C1.82611 9.62223 2.93456 9.22165 3.81972 8.53829C2.68736 8.51471 1.73841 7.78423 1.41145 6.77881C1.57095 6.80236 1.73043 6.81808 1.89791 6.81808C2.12916 6.81808 2.36043 6.78665 2.57572 6.73169C1.39552 6.49603 0.510339 5.47493 0.510339 4.24173V4.21033C0.853223 4.39884 1.25198 4.51666 1.67459 4.53235C0.980814 4.07677 0.526294 3.29916 0.526294 2.41942C0.526294 1.94815 0.65386 1.51614 0.877156 1.13911C2.14509 2.67863 4.05097 3.68402 6.18808 3.79401C6.14822 3.60549 6.12428 3.40914 6.12428 3.21277C6.12428 1.81461 7.2726 0.67569 8.70001 0.67569C9.44162 0.67569 10.1115 0.982023 10.582 1.47687C11.1641 1.36691 11.7223 1.15482 12.2167 0.864205C12.0253 1.45332 11.6186 1.94817 11.0843 2.26234C11.6027 2.20738 12.1051 2.06597 12.5676 1.86962C12.2168 2.3723 11.7781 2.82 11.2758 3.18134Z" fill="white"/>
</svg>
