<svg width="12" height="12" viewBox="0 0 12 12" fill="none" xmlns="http://www.w3.org/2000/svg">
    <path d="M6.00077 6C7.62398 6 8.93954 4.65703 8.93954 3C8.93954 1.34297 7.62398 0 6.00077 0C4.37755 0 3.06199 1.34297 3.06199 3C3.06199 4.65703 4.37755 6 6.00077 6ZM8.05791 6.75H7.67449C7.1648 6.98906 6.59771 7.125 6.00077 7.125C5.40383 7.125 4.83903 6.98906 4.32704 6.75H3.94362C2.24005 6.75 0.85791 8.16094 0.85791 9.9V10.875C0.85791 11.4961 1.35153 12 1.95995 12H10.0416C10.65 12 11.1436 11.4961 11.1436 10.875V9.9C11.1436 8.16094 9.76148 6.75 8.05791 6.75Z" fill="white"/>
</svg>
