<svg width="106" height="14" viewBox="0 0 106 14" fill="none" xmlns="http://www.w3.org/2000/svg">
    <path d="M62.707 2.3152H66.8274V13.5594H69.198V2.3152H73.3747V0.220703H62.707V2.3152Z" fill="black"/>
    <path d="M85.0581 0.220703H82.6875V13.5594H85.0581V0.220703Z" fill="black"/>
    <path d="M8.18421 9.42536L2.70926 0.110352H0L8.18421 14.0002L16.3684 0.110352H13.7156L8.18421 9.42536Z" fill="black"/>
    <path d="M54.8052 4.4097C54.8052 1.92937 53.0555 0.220703 50.3462 0.220703H44.3633V13.5042H46.7339V8.54358H49.1045L52.0959 13.5042H54.8616L51.5315 8.26799C53.2248 8.04752 54.8052 6.77979 54.8052 4.4097ZM46.7339 6.55932V2.3152H50.0076C51.3622 2.3152 52.3217 3.14198 52.3217 4.4097C52.3217 5.73254 51.3622 6.55932 50.0076 6.55932H46.7339Z" fill="black"/>
    <path d="M28.8396 0C24.945 0 21.7842 3.08663 21.7842 6.8898C21.7842 10.693 24.945 13.7796 28.8396 13.7796C32.7341 13.7796 35.8949 10.693 35.8949 6.8898C35.8949 3.08663 32.7341 0 28.8396 0ZM28.8396 11.7402C26.1303 11.7402 23.9291 9.5906 23.9291 6.94492C23.9291 4.29924 26.1303 2.14962 28.8396 2.14962C31.5488 2.14962 33.7501 4.29924 33.7501 6.94492C33.7501 9.5906 31.5488 11.7402 28.8396 11.7402Z" fill="black"/>
    <path d="M102.894 0.165355C102.442 0.0551184 101.934 0 101.483 0C100.749 0 100.072 0.110237 99.3945 0.33071C98.943 0.440947 98.5479 0.661421 98.1528 0.826776C97.5319 1.15749 97.0239 1.54332 96.5159 2.03938C96.3466 2.20474 96.1773 2.37009 96.0644 2.53545C95.895 2.7008 95.7822 2.86616 95.6693 3.08663C95.3871 3.47246 95.2177 3.85829 94.992 4.24412C94.9355 4.40947 94.8226 4.62995 94.7662 4.7953C94.7662 4.85042 94.7098 4.90554 94.7098 4.96066C94.6533 5.12601 94.6533 5.23625 94.5969 5.4016C94.5969 5.45672 94.5969 5.51184 94.5404 5.56696C94.484 5.78743 94.484 5.95279 94.4275 6.17326C94.4275 6.39373 94.3711 6.61421 94.3711 6.8898C94.3711 7.16539 94.3711 7.38587 94.4275 7.60634C94.484 8.04729 94.5969 8.54335 94.7098 8.92918C94.992 9.81108 95.4435 10.5827 96.0079 11.2442C96.1773 11.4095 96.2901 11.5749 96.4595 11.7402C96.6288 11.9056 96.7981 12.0709 96.9675 12.1812C97.5319 12.6772 98.2092 13.0079 98.943 13.2835L100.015 11.4646C99.846 11.4095 99.6767 11.3544 99.5074 11.2993C99.4509 11.2993 99.3945 11.2442 99.3381 11.2442C99.2252 11.189 99.1123 11.1339 98.9994 11.0788C98.943 11.0237 98.8865 11.0237 98.8301 10.9686C98.7172 10.9134 98.6043 10.8583 98.4914 10.7481C98.435 10.693 98.3785 10.693 98.3785 10.6379C98.2656 10.5276 98.0963 10.4174 97.9834 10.3071C97.8706 10.1969 97.7577 10.0315 97.6448 9.92131C97.5883 9.86619 97.5883 9.81108 97.5319 9.81108C97.4754 9.70084 97.3626 9.5906 97.3061 9.48037C97.2497 9.42525 97.2497 9.37013 97.1932 9.31501C97.1368 9.20477 97.0803 9.09454 97.0239 8.9843C97.0239 8.92918 96.9675 8.87406 96.9675 8.81894C96.911 8.65359 96.8546 8.48823 96.7981 8.32288C96.6852 8.04729 96.6288 7.71658 96.6288 7.38587C96.6288 7.22051 96.6288 7.05516 96.6288 6.8898C96.6288 6.50397 96.6852 6.17326 96.7417 5.78743C96.7981 5.51184 96.911 5.23625 97.0239 5.01578C97.1368 4.74018 97.3061 4.46459 97.4754 4.189C97.6448 3.91341 97.8705 3.69293 98.0963 3.47246C98.435 3.14175 98.8301 2.86616 99.2252 2.64568C99.9025 2.25985 100.749 2.03938 101.596 2.03938C102.047 2.03938 102.499 2.0945 102.95 2.20474C103.063 2.20474 103.12 2.25985 103.233 2.31497C103.402 2.37009 103.571 2.42521 103.741 2.53545C104.192 2.75592 104.587 3.03151 104.926 3.36222L105.998 1.54332C105.039 0.881894 104.023 0.385829 102.894 0.165355Z" fill="black"/>
</svg>
