<svg xmlns="http://www.w3.org/2000/svg" width="140.00868mm" height="21.53357mm" viewBox="0 0 396.875 61.04004"><defs><style>.cls-1{fill:#1a1a1a;}</style></defs><g id="Layer_2" data-name="Layer 2"><g id="Layer_1-2" data-name="Layer 1"><path class="cls-1" d="M16.2002,8.76074A16.58293,16.58293,0,0,1,26,5.68066a16.84448,16.84448,0,0,1,12.68018,5.63965Q43.999,16.96,46.16016,28L44.87988,9.52051A31.82719,31.82719,0,0,0,35.52,5.7207a39.78191,39.78191,0,0,0-9.04-1.24023A24.82979,24.82979,0,0,0,13.27979,8.2002,27.27521,27.27521,0,0,0,3.6001,18.36035,28.76689,28.76689,0,0,0,0,32.64062a29.55781,29.55781,0,0,0,3.56006,14.4795,26.58451,26.58451,0,0,0,9.75976,10.20019A26.29988,26.29988,0,0,0,27.12012,61.04a31.271,31.271,0,0,0,10.52-1.79981,27.3876,27.3876,0,0,0,8.52-4.67968V45.76074q-3.20068,7.52051-8.28028,10.79981A19.75973,19.75973,0,0,1,26.96,59.83984a18.49374,18.49374,0,0,1-10.3999-3A19.7527,19.7527,0,0,1,9.3999,47.7207a38.36469,38.36469,0,0,1-2.6001-15,38.67841,38.67841,0,0,1,2.52-14.80078A20.39975,20.39975,0,0,1,16.2002,8.76074Z"/><path class="cls-1" d="M98.87671,37.91992A24.1314,24.1314,0,0,0,95.959,26.04a20.8024,20.8024,0,0,0-8.12011-8.16016A23.93142,23.93142,0,0,0,75.919,14.96,23.92882,23.92882,0,0,0,63.999,17.87988,20.78972,20.78972,0,0,0,55.87891,26.04a24.12085,24.12085,0,0,0-2.91773,11.87988H52.959l.0011.04L52.959,38h.0022a24.11285,24.11285,0,0,0,2.91773,11.87988A20.76439,20.76439,0,0,0,63.999,58.04,23.90833,23.90833,0,0,0,75.919,60.96,23.91093,23.91093,0,0,0,87.83887,58.04,20.777,20.777,0,0,0,95.959,49.87988,24.1234,24.1234,0,0,0,98.87671,38h.0022l-.0011-.04.0011-.04ZM84.519,56.96a14.60415,14.60415,0,0,1-17.20019,0A18.28951,18.28951,0,0,1,61.519,49.2002,28.89237,28.89237,0,0,1,59.43982,37.96,28.89752,28.89752,0,0,1,61.519,26.7207,18.31072,18.31072,0,0,1,67.31885,18.96a14.60828,14.60828,0,0,1,17.20019,0,18.31864,18.31864,0,0,1,5.79981,7.76074A28.92573,28.92573,0,0,1,92.39807,37.96,28.92057,28.92057,0,0,1,90.31885,49.2002,18.29742,18.29742,0,0,1,84.519,56.96Z"/><path class="cls-1" d="M113.51855,58.40039a10.69009,10.69009,0,0,1-.87988-4.7998V0l-7.92041.96A4.78808,4.78808,0,0,1,106.31836,3.04a11.69217,11.69217,0,0,1,.3999,3.60058v46.96a10.039,10.039,0,0,1-.83984,4.83984,5.4324,5.4324,0,0,1-3.31983,2.12012h14.23975A5.60552,5.60552,0,0,1,113.51855,58.40039Z"/><path class="cls-1" d="M132.23682,58.40039a10.68992,10.68992,0,0,1-.87989-4.7998V0l-7.92041.96A4.788,4.788,0,0,1,125.03662,3.04a11.69217,11.69217,0,0,1,.3999,3.60058v46.96a10.039,10.039,0,0,1-.83984,4.83984,5.4324,5.4324,0,0,1-3.31982,2.12012H135.5166A5.60546,5.60546,0,0,1,132.23682,58.40039Z"/><path class="cls-1" d="M179.75635,33.36035q-.16113-8.39941-4.91992-13.40039-4.76075-4.998-14.04-5a21.63839,21.63839,0,0,0-11.43994,2.96,19.474,19.474,0,0,0-7.48,8.24024,26.80669,26.80669,0,0,0-2.60009,12,23.85686,23.85686,0,0,0,2.91992,11.96,20.3,20.3,0,0,0,8.16016,8,24.69188,24.69188,0,0,0,11.96,2.83984,28.16876,28.16876,0,0,0,8.87988-1.47949,23.72693,23.72693,0,0,0,7.84033-4.28027l.71973-11.59961q-5.92091,16.24071-17.43994,16.23925a14.00061,14.00061,0,0,1-8.52-2.7998,18.33353,18.33353,0,0,1-5.91993-7.71973,27.51282,27.51282,0,0,1-2.12011-11,38.58669,38.58669,0,0,1,.31341-4.96ZM152.83643,18.91992A11.73015,11.73015,0,0,1,160.71631,16a10.86279,10.86279,0,0,1,9.43994,4.80078A20.60184,20.60184,0,0,1,173.496,32.40039h-27.2926a29.71153,29.71153,0,0,1,1.39276-5.48047A18.64943,18.64943,0,0,1,152.83643,18.91992Z"/><path class="cls-1" d="M207.99658,59.83984a13.76418,13.76418,0,0,1-8.40039-2.71972,17.81308,17.81308,0,0,1-5.75976-7.71973,29.88808,29.88808,0,0,1-2.08008-11.56055,30.72155,30.72155,0,0,1,1.96-11.35937,17.444,17.444,0,0,1,5.52051-7.67969,12.90334,12.90334,0,0,1,8.04-2.7207,13.3526,13.3526,0,0,1,9.87988,4.20019q4.11913,4.19971,5.08008,13.63965l2.63964-12.63965a29.81219,29.81219,0,0,0-8.16015-4.59961,26.758,26.758,0,0,0-9.51953-1.7207,22.1828,22.1828,0,0,0-11.40039,2.91992A20.21665,20.21665,0,0,0,188.03662,25.96a24.63513,24.63513,0,0,0-2.75976,11.80078,24.689,24.689,0,0,0,2.91992,12.15918,20.50126,20.50126,0,0,0,8.08008,8.16016A23.46876,23.46876,0,0,0,207.9165,60.96a32.70532,32.70532,0,0,0,8.96-1.31934,19.80821,19.80821,0,0,0,8-4.36035l.55958-13.36035q-2.23976,8.64111-6.79981,13.28028A14.46078,14.46078,0,0,1,207.99658,59.83984Z"/><path class="cls-1" d="M251.15576,58.40039a6.11969,6.11969,0,0,1-3.87988,1.28027,4.43439,4.43439,0,0,1-4-1.96q-1.28028-1.96-1.2793-7.08008V16.24023H255.1167v-.87988H241.99658V4.24023l-5.52051,11.12012h-8.24023v.87988h7.84082V48.87988a19.76142,19.76142,0,0,0,1.0791,6.56055,7.90921,7.90921,0,0,0,3.24024,4.04,10.8805,10.8805,0,0,0,5.83984,1.39941,9.01184,9.01184,0,0,0,5.24023-1.31933,14.791,14.791,0,0,0,3.71973-4.2002l-1.04-.71973A12.01242,12.01242,0,0,1,251.15576,58.40039Z"/><path class="cls-1" d="M265.35693,9.12012A4.274,4.274,0,0,0,268.397,8a3.85684,3.85684,0,0,0,1.2002-2.96,3.7677,3.7677,0,0,0-1.2002-2.87988,4.28252,4.28252,0,0,0-3.04-1.12012,4.17575,4.17575,0,0,0-2.96,1.12012A3.76772,3.76772,0,0,0,261.19678,5.04,3.85687,3.85687,0,0,0,262.397,8,4.16731,4.16731,0,0,0,265.35693,9.12012Z"/><path class="cls-1" d="M269.437,58.40039a10.67638,10.67638,0,0,1-.87988-4.7998V14.87988l-8.16016.72071a8.3499,8.3499,0,0,1,1.79981,3.31933,22.44624,22.44624,0,0,1,.44043,5.16016V53.60059a10.03094,10.03094,0,0,1-.84082,4.83984,5.42961,5.42961,0,0,1-3.31934,2.12012h14.24024A5.60531,5.60531,0,0,1,269.437,58.40039Z"/><path class="cls-1" d="M310.47656,15.36035l.24024.16016a3.65639,3.65639,0,0,1,1.55957,2.63965q.36034,1.9204-1.79981,6.87988L298.41034,53.26245,284.15771,20.32031a5.77546,5.77546,0,0,1-.64062-3.20019,2.97094,2.97094,0,0,1,1.04-1.75977h-10q2.08008,1.12061,4.63965,7.04l16.56006,38.16016h.87988l16.40039-38.40039a16.76624,16.76624,0,0,1,2.59961-4.43946,14.81923,14.81923,0,0,1,2.59961-2.36035Z"/><path class="cls-1" d="M357.99609,33.36035Q357.835,24.96094,353.07617,19.96q-4.76074-4.998-14.04-5a21.64017,21.64017,0,0,0-11.44043,2.96,19.479,19.479,0,0,0-7.47949,8.24024,26.813,26.813,0,0,0-2.59961,12,23.84679,23.84679,0,0,0,2.91992,11.96,20.30062,20.30062,0,0,0,8.15918,8,24.69461,24.69461,0,0,0,11.96,2.83984,28.17913,28.17913,0,0,0,8.88086-1.47949,23.72469,23.72469,0,0,0,7.83985-4.28027l.71972-11.59961Q352.0752,59.8413,340.55566,59.83984a13.99819,13.99819,0,0,1-8.51953-2.7998,18.32572,18.32572,0,0,1-5.91992-7.71973,27.51282,27.51282,0,0,1-2.12012-11,38.58666,38.58666,0,0,1,.31342-4.96ZM331.07617,18.91992A11.73107,11.73107,0,0,1,338.95605,16a10.86419,10.86419,0,0,1,9.44043,4.80078,20.60869,20.60869,0,0,1,3.33881,11.59961H324.44318a29.71074,29.71074,0,0,1,1.39276-5.48047A18.64942,18.64942,0,0,1,331.07617,18.91992Z"/><path class="cls-1" d="M395.03418,40.76074a13.22089,13.22089,0,0,0-4.23926-3.96,29.8165,29.8165,0,0,0-5.28027-2.32031l-7.75977-2.56055-.24023-.08008a18.99232,18.99232,0,0,1-5.52051-2.67968,5.6545,5.6545,0,0,1-2.0791-4.83985,7.29406,7.29406,0,0,1,2.7998-6.20019A11.74229,11.74229,0,0,1,379.99414,16a11.29924,11.29924,0,0,1,8.64063,3.40039q3.19774,3.40137,5.28027,11.32031l.55957-10.80078a19.52719,19.52719,0,0,0-6.40039-3.71972,23.28981,23.28981,0,0,0-7.91992-1.32032q-6.479,0-10.39942,3.08008a9.98382,9.98382,0,0,0-3.91992,8.28027,9.74054,9.74054,0,0,0,2.87988,7.44043,17.34424,17.34424,0,0,0,6.4795,3.91993l8.56054,2.87988a18.45155,18.45155,0,0,1,5.91992,3.20019q2.39941,1.99951,2.39942,6.23926a9.34314,9.34314,0,0,1-2.96,7.16016q-2.96046,2.75976-8.71973,2.75976a13.2028,13.2028,0,0,1-10.24023-4.19922q-3.83935-4.20117-4.71973-14.44042L364.1543,56.32031a19.29485,19.29485,0,0,0,6.87988,3.40039A31.17388,31.17388,0,0,0,379.835,60.96a21.93981,21.93981,0,0,0,9.19922-1.75976,13.385,13.385,0,0,0,5.84082-4.83985,12.71585,12.71585,0,0,0,2-7.08008A11.01188,11.01188,0,0,0,395.03418,40.76074Z"/></g></g></svg>