<svg width="813" height="123" viewBox="0 0 813 123" fill="none" xmlns="http://www.w3.org/2000/svg">
    <path d="M0.720001 122C4.24 121.04 6.64 119.547 7.92 117.52C9.30667 115.493 10 112.187 10 107.6V24.56C10 19.8667 9.52 16.6667 8.56 14.96C7.6 13.1467 5.41333 11.76 2 10.8H22.16V122H0.720001ZM61.36 78.64C61.1467 75.12 60.3467 72.3467 58.96 70.32C57.68 68.1867 55.12 66.5333 51.28 65.36C47.5467 64.1867 42.0533 63.6 34.8 63.6H17.2V60.88H35.12C42.16 60.88 47.6 60.3467 51.44 59.28C55.3867 58.1067 58.2133 56.5067 59.92 54.48C61.6267 52.3467 62.8533 49.5733 63.6 46.16L61.36 78.64ZM46.64 119.28C52.4 119.28 57.36 118.48 61.52 116.88C65.7867 115.173 69.4667 112.133 72.56 107.76C75.6533 103.28 78.0533 96.9867 79.76 88.88L76.88 122H16.72L16.56 119.28H46.64ZM76.88 40.08C75.1733 33.04 72.6133 27.6 69.2 23.76C65.8933 19.8133 62 17.1467 57.52 15.76C53.04 14.2667 47.92 13.52 42.16 13.52H16.56L16.72 10.8H73.52L76.88 40.08ZM151.3 122L151.46 121.84C152.527 120.987 153.113 119.92 153.22 118.64C153.433 117.253 152.473 115.12 150.34 112.24L102.5 45.2C102.073 44.4533 101.593 43.76 101.06 43.12C100.633 42.48 100.153 41.8933 99.62 41.36C97.38 38.2667 95.5667 36.0267 94.18 34.64C92.9 33.1467 91.7267 32.1333 90.66 31.6H111.78C110.713 32.6667 110.127 33.9467 110.02 35.44C109.913 36.9333 110.767 38.96 112.58 41.52L160.58 108.56L162.66 111.44C165.113 114.853 166.98 117.307 168.26 118.8C169.647 120.293 171.087 121.36 172.58 122H151.3ZM105.22 106C101.273 111.013 99.3 114.587 99.3 116.72C99.3 118.853 100.047 120.453 101.54 121.52L102.02 122H87.14C87.3533 121.893 87.7267 121.573 88.26 121.04C92.8467 117.733 97.0067 113.573 100.74 108.56L128.1 73.36L129.38 75.28L105.22 106ZM149.54 47.6C153.38 42.6933 155.353 39.2267 155.46 37.2C155.673 35.0667 155.14 33.4133 153.86 32.24L153.22 31.6H169.06C166.927 32.6667 164.633 34.2133 162.18 36.24C159.727 38.2667 157.007 41.2533 154.02 45.2L130.5 75.6L129.22 73.68L149.54 47.6ZM194.975 71.28C195.828 58.9067 199.508 49.0933 206.015 41.84C212.522 34.48 221.535 30.8 233.055 30.8C243.082 30.8 250.922 33.5733 256.575 39.12C262.228 44.56 265.055 51.76 265.055 60.72L253.215 59.12C253.215 51.0133 251.242 44.72 247.295 40.24C243.455 35.76 237.908 33.52 230.655 33.52C224.468 33.52 218.815 35.1733 213.695 38.48C208.575 41.68 204.522 46.4267 201.535 52.72C198.655 58.9067 197.428 66.16 197.855 74.48L194.975 71.28ZM253.215 59.12L265.055 60.72V112.4H253.215V59.12ZM244.895 122C248.202 121.04 250.388 119.653 251.455 117.84C252.628 115.92 253.215 112.667 253.215 108.08H265.055C265.162 112.667 265.748 115.867 266.815 117.68C267.882 119.493 270.068 120.933 273.375 122H244.895ZM186.015 14.16H197.855V108.08H186.015V14.16ZM177.695 122C181.002 121.04 183.188 119.653 184.255 117.84C185.428 115.92 186.015 112.667 186.015 108.08H197.855C197.962 112.667 198.548 115.867 199.615 117.68C200.682 119.493 202.868 120.933 206.175 122H177.695ZM186.015 14.16C186.015 10.8533 185.748 8.45333 185.215 6.95999C184.682 5.46666 183.615 4.07999 182.015 2.79999L197.855 0.879995V14.16H186.015ZM290.706 49.04C290.706 44.4533 290.386 41.04 289.746 38.8C289.213 36.4533 288.04 34.2133 286.226 32.08L302.546 30.64V108.08H290.706V49.04ZM282.386 122C285.693 121.04 287.88 119.653 288.946 117.84C290.12 115.92 290.706 112.667 290.706 108.08H302.546C302.653 112.667 303.24 115.867 304.306 117.68C305.373 119.493 307.56 120.933 310.866 122H282.386ZM296.146 19.12C293.8 19.12 291.826 18.3733 290.226 16.88C288.626 15.3867 287.826 13.4133 287.826 10.96C287.826 8.61333 288.626 6.69333 290.226 5.2C291.826 3.70666 293.8 2.96 296.146 2.96C298.6 2.96 300.626 3.70666 302.226 5.2C303.826 6.69333 304.626 8.61333 304.626 10.96C304.626 13.4133 303.826 15.3867 302.226 16.88C300.626 18.3733 298.6 19.12 296.146 19.12ZM323.92 122V14.16H335.76V108.56L324.56 122.32L323.92 122ZM333.36 96.88C336.56 104.56 340.56 110.373 345.36 114.32C350.267 118.16 356.08 120.08 362.8 120.08C369.307 120.08 375.013 118.373 379.92 114.96C384.827 111.547 388.56 106.853 391.12 100.88C393.787 94.9067 395.12 88.1333 395.12 80.56C395.12 71.8133 393.733 63.8667 390.96 56.72C388.187 49.5733 384.08 43.92 378.64 39.76C373.307 35.6 366.853 33.52 359.28 33.52C352.88 33.52 347.013 35.28 341.68 38.8C336.347 42.32 332.507 48.3467 330.16 56.88L329.2 53.52C334.533 38.3733 345.52 30.8 362.16 30.8C371.333 30.8 379.333 32.6133 386.16 36.24C392.987 39.76 398.213 44.8267 401.84 51.44C405.573 57.9467 407.44 65.5733 407.44 74.32C407.44 83.1733 405.467 91.3333 401.52 98.8C397.573 106.16 392.08 112.027 385.04 116.4C378.107 120.667 370.32 122.8 361.68 122.8C354.32 122.8 347.653 121.253 341.68 118.16C335.813 114.96 331.013 110.32 327.28 104.24L333.36 96.88ZM323.92 14.16C323.92 10.8533 323.653 8.45333 323.12 6.95999C322.587 5.46666 321.52 4.07999 319.92 2.79999L335.76 0.879995V14.16H323.92ZM422.581 49.04C422.581 44.4533 422.261 41.04 421.621 38.8C421.088 36.4533 419.915 34.2133 418.101 32.08L434.421 30.64V108.08H422.581V49.04ZM414.261 122C417.568 121.04 419.755 119.653 420.821 117.84C421.995 115.92 422.581 112.667 422.581 108.08H434.421C434.528 112.667 435.115 115.867 436.181 117.68C437.248 119.493 439.435 120.933 442.741 122H414.261ZM428.021 19.12C425.675 19.12 423.701 18.3733 422.101 16.88C420.501 15.3867 419.701 13.4133 419.701 10.96C419.701 8.61333 420.501 6.69333 422.101 5.2C423.701 3.70666 425.675 2.96 428.021 2.96C430.475 2.96 432.501 3.70666 434.101 5.2C435.701 6.69333 436.501 8.61333 436.501 10.96C436.501 13.4133 435.701 15.3867 434.101 16.88C432.501 18.3733 430.475 19.12 428.021 19.12ZM474.72 33.36V102.16C474.72 108.987 475.573 113.733 477.28 116.4C478.987 118.96 481.653 120.24 485.28 120.24C488.267 120.24 490.827 119.387 492.96 117.68C495.2 115.973 497.227 113.467 499.04 110.16L501.12 111.6C498.667 115.44 496.16 118.267 493.6 120.08C491.147 121.787 487.68 122.64 483.2 122.64C478.4 122.64 474.507 121.733 471.52 119.92C468.533 118 466.347 115.28 464.96 111.76C463.68 108.24 462.987 103.867 462.88 98.64V97.84V33.36H447.2V31.6H463.68L474.72 9.35999V31.6H500.96V33.36H474.72ZM516.019 49.04C516.019 44.4533 515.699 41.04 515.059 38.8C514.525 36.4533 513.352 34.2133 511.539 32.08L527.859 30.64V108.08H516.019V49.04ZM507.699 122C511.005 121.04 513.192 119.653 514.259 117.84C515.432 115.92 516.019 112.667 516.019 108.08H527.859C527.965 112.667 528.552 115.867 529.619 117.68C530.685 119.493 532.872 120.933 536.179 122H507.699ZM521.459 19.12C519.112 19.12 517.139 18.3733 515.539 16.88C513.939 15.3867 513.139 13.4133 513.139 10.96C513.139 8.61333 513.939 6.69333 515.539 5.2C517.139 3.70666 519.112 2.96 521.459 2.96C523.912 2.96 525.939 3.70666 527.539 5.2C529.139 6.69333 529.939 8.61333 529.939 10.96C529.939 13.4133 529.139 15.3867 527.539 16.88C525.939 18.3733 523.912 19.12 521.459 19.12ZM589.255 120.4C595.762 120.4 601.468 118.533 606.375 114.8C611.388 111.067 615.282 105.893 618.055 99.28C620.828 92.6667 622.215 85.1467 622.215 76.72H635.175C635.175 85.68 633.202 93.68 629.255 100.72C625.415 107.653 620.028 113.093 613.095 117.04C606.162 120.88 598.215 122.8 589.255 122.8V120.4ZM589.255 30.8C598.215 30.8 606.162 32.7733 613.095 36.72C620.028 40.56 625.415 46 629.255 53.04C633.202 59.9733 635.175 67.92 635.175 76.88H622.215C622.215 68.4533 620.828 60.9333 618.055 54.32C615.282 47.7067 611.388 42.5333 606.375 38.8C601.468 35.0667 595.762 33.2 589.255 33.2V30.8ZM589.255 122.8C580.295 122.8 572.348 120.88 565.415 117.04C558.482 113.093 553.042 107.653 549.095 100.72C545.255 93.68 543.335 85.68 543.335 76.72H556.295C556.295 85.1467 557.682 92.6667 560.455 99.28C563.228 105.893 567.068 111.067 571.975 114.8C576.988 118.533 582.748 120.4 589.255 120.4V122.8ZM589.255 33.2C582.748 33.2 576.988 35.0667 571.975 38.8C567.068 42.5333 563.228 47.7067 560.455 54.32C557.682 60.9333 556.295 68.4533 556.295 76.88H543.335C543.335 67.92 545.255 59.9733 549.095 53.04C553.042 46 558.482 40.56 565.415 36.72C572.348 32.7733 580.295 30.8 589.255 30.8V33.2ZM662.859 30.64V108.08H651.019V49.04C651.019 44.4533 650.699 41.04 650.059 38.8C649.525 36.4533 648.352 34.2133 646.539 32.08L662.859 30.64ZM659.979 71.28C660.832 58.9067 664.512 49.0933 671.019 41.84C677.525 34.48 686.539 30.8 698.059 30.8C708.085 30.8 715.925 33.5733 721.579 39.12C727.232 44.56 730.059 51.76 730.059 60.72L718.219 59.12C718.219 51.0133 716.245 44.72 712.299 40.24C708.459 35.76 702.912 33.52 695.659 33.52C689.472 33.52 683.819 35.1733 678.699 38.48C673.579 41.68 669.525 46.4267 666.539 52.72C663.659 58.9067 662.432 66.16 662.859 74.48L659.979 71.28ZM718.219 59.12L730.059 60.72V112.4H718.219V59.12ZM709.899 122C713.205 121.04 715.392 119.653 716.459 117.84C717.632 115.92 718.219 112.667 718.219 108.08H730.059C730.165 112.667 730.752 115.867 731.819 117.68C732.885 119.493 735.072 120.933 738.379 122H709.899ZM642.699 122C646.005 121.04 648.192 119.653 649.259 117.84C650.432 115.92 651.019 112.667 651.019 108.08H662.859C662.965 112.667 663.552 115.867 664.619 117.68C665.685 119.493 667.872 120.933 671.179 122H642.699ZM758.148 49.52C758.148 53.8933 759.534 57.1467 762.307 59.28C765.081 61.3067 768.761 63.0667 773.348 64.56L773.828 64.72L789.348 69.84C793.188 71.12 796.708 72.6667 799.908 74.48C803.108 76.2933 805.934 78.96 808.388 82.48C810.841 85.8933 812.068 90.2133 812.068 95.44C812.068 100.773 810.734 105.52 808.068 109.68C805.401 113.733 801.508 116.933 796.388 119.28C791.268 121.627 785.134 122.8 777.988 122.8C771.908 122.8 766.041 122 760.388 120.4C754.734 118.693 750.148 116.4 746.628 113.52L749.188 83.28C750.361 96.9333 753.508 106.587 758.628 112.24C763.748 117.787 770.574 120.56 779.108 120.56C786.788 120.56 792.601 118.747 796.548 115.12C800.494 111.387 802.468 106.587 802.468 100.72C802.468 95.0667 800.868 90.9067 797.668 88.24C794.468 85.5733 790.521 83.44 785.828 81.84L768.708 76.08C763.908 74.48 759.588 71.8667 755.748 68.24C751.908 64.6133 749.988 59.6533 749.988 53.36C749.988 46.4267 752.601 40.9333 757.828 36.88C763.054 32.72 769.988 30.64 778.628 30.64C784.281 30.64 789.561 31.5467 794.468 33.36C799.374 35.0667 803.641 37.52 807.268 40.72L806.148 62.32C803.374 51.76 799.854 44.24 795.588 39.76C791.321 35.1733 785.561 32.88 778.308 32.88C772.334 32.88 767.481 34.32 763.748 37.2C760.014 39.9733 758.148 44.08 758.148 49.52Z" fill="#1A1A1A"/>
</svg>

