<svg xmlns="http://www.w3.org/2000/svg" width="109.95108mm" height="21.53357mm" viewBox="0 0 311.67236 61.04004"><defs><style>.cls-1{fill:#1a1a1a;}</style></defs><g id="Layer_2" data-name="Layer 2"><g id="Layer_1-2" data-name="Layer 1"><path class="cls-1" d="M42.08008,34.3999h-3.2002q-4.24144,0-6.83984-.04A28.62324,28.62324,0,0,1,28,34.08008l-.16016,2q2.55983-.3186,12.24024-.31983h2v16.5542A19.55866,19.55866,0,0,1,35.04,58a20.0681,20.0681,0,0,1-8.16016,1.83984,18.438,18.438,0,0,1-10.43994-3,19.64375,19.64375,0,0,1-7.08008-9.07959,38.82292,38.82292,0,0,1-2.56006-15.04,38.67578,38.67578,0,0,1,2.52-14.80029A20.39867,20.39867,0,0,1,16.2002,8.76025,16.58292,16.58292,0,0,1,26,5.68018a17.51166,17.51166,0,0,1,12.48,5.12011q5.35841,5.12037,7.6001,14.15967L44.96,9.83984a26.3758,26.3758,0,0,0-8.72021-3.96A37.95312,37.95312,0,0,0,26.3999,4.48,25.27786,25.27786,0,0,0,12.75977,8.24023,25.88165,25.88165,0,0,0,3.35986,18.43994,30.40534,30.40534,0,0,0,0,32.72021,29.39811,29.39811,0,0,0,3.56006,47.12012a26.67584,26.67584,0,0,0,9.71973,10.1997A25.65739,25.65739,0,0,0,26.7998,61.04a23.39942,23.39942,0,0,0,10.52-2.52,22.279,22.279,0,0,0,5.01-3.397l5.83039,5.6773V34.3999H42.08008Z"/><path class="cls-1" d="M90.87891,28.24023q0-6.3999-4.07959-9.80029Q82.719,15.04077,75.59912,15.04a29.534,29.534,0,0,0-8.83984,1.35986A22.71861,22.71861,0,0,0,59.439,20.08008l.48,13.35986q2.07934-9.43872,6.20019-13.35986A13.17472,13.17472,0,0,1,75.439,16.16016q4.8003,0,7.16016,2.87988,2.35841,2.87988,2.35986,8.7998v5.75733L76.0791,35.76025a76.87128,76.87128,0,0,0-9.35986,2.79981A20.63171,20.63171,0,0,0,59.6792,43a9.81941,9.81941,0,0,0-3.04,7.3999,9.00007,9.00007,0,0,0,3.75977,7.76026q3.75951,2.72021,9.84033,2.71972,6.07836,0,9.75976-3.11963a18.45367,18.45367,0,0,0,5.28028-7.52179V60.80029l7.83984-.24023q-2.24048-1.99878-2.24023-6.96ZM77.999,57.72021a12.28545,12.28545,0,0,1-6.48,1.96A7.676,7.676,0,0,1,65.39893,57.04a9.91311,9.91311,0,0,1-2.27979-6.72022,11.41145,11.41145,0,0,1,2.16016-7.23974A13.862,13.862,0,0,1,70.19922,39a30.98058,30.98058,0,0,1,6.04-2.12012L84.959,34.76935V44.5177A16.99972,16.99972,0,0,1,83.15918,52,14.21231,14.21231,0,0,1,77.999,57.72021Z"/><path class="cls-1" d="M108.87744,58.3999a10.69,10.69,0,0,1-.87988-4.7998V0l-7.92041.96A4.78533,4.78533,0,0,1,101.67725,3.04a11.68642,11.68642,0,0,1,.3999,3.6001v46.96a10.039,10.039,0,0,1-.83985,4.83984,5.42819,5.42819,0,0,1-3.31982,2.12012h14.23975A5.60106,5.60106,0,0,1,108.87744,58.3999Z"/><path class="cls-1" d="M127.5957,58.3999a10.69009,10.69009,0,0,1-.87988-4.7998V0l-7.92041.96A4.78533,4.78533,0,0,1,120.39551,3.04a11.68642,11.68642,0,0,1,.3999,3.6001v46.96a10.03911,10.03911,0,0,1-.83984,4.83984,5.42822,5.42822,0,0,1-3.31983,2.12012h14.23975A5.60106,5.60106,0,0,1,127.5957,58.3999Z"/><path class="cls-1" d="M175.11523,33.35986q-.16113-8.39941-4.91992-13.3999-4.76075-4.99878-14.04-5a21.63392,21.63392,0,0,0-11.43994,2.96,19.46831,19.46831,0,0,0-7.48,8.24024,26.80366,26.80366,0,0,0-2.6001,12,23.85942,23.85942,0,0,0,2.91993,11.96,20.303,20.303,0,0,0,8.16015,8,24.6919,24.6919,0,0,0,11.96,2.83984,28.15567,28.15567,0,0,0,8.87989-1.48,23.72612,23.72612,0,0,0,7.84033-4.27978l.71972-11.6001q-5.92089,16.24144-17.43994,16.23974a14.00377,14.00377,0,0,1-8.52-2.7998,18.33509,18.33509,0,0,1-5.91992-7.72022,27.50946,27.50946,0,0,1-2.12012-11,38.577,38.577,0,0,1,.31348-4.96ZM148.19531,18.91992A11.73019,11.73019,0,0,1,156.0752,16a10.86237,10.86237,0,0,1,9.43994,4.80029,20.60393,20.60393,0,0,1,3.33978,11.59961H141.56238a29.71351,29.71351,0,0,1,1.3927-5.48A18.64353,18.64353,0,0,1,148.19531,18.91992Z"/><path class="cls-1" d="M195.915,17.35986a16.26516,16.26516,0,0,0-4.79981,5.96c-.352.72809-.69763,1.528-1.04,2.36383V14.87988l-8.08008.72022a8.34827,8.34827,0,0,1,1.7998,3.31982,22.44333,22.44333,0,0,1,.44043,5.16016v29.52a10.03787,10.03787,0,0,1-.84033,4.83984,5.42822,5.42822,0,0,1-3.31982,2.12012h14.24023a5.60078,5.60078,0,0,1-3.28027-2.16016,10.67635,10.67635,0,0,1-.87989-4.7998V27.78235a33.75211,33.75211,0,0,1,2.08008-4.66223q2.87988-5.28,7.19922-5.28028a7.85878,7.85878,0,0,1,4.52051,1.6001,20.82009,20.82009,0,0,1,4.12012,3.84033l.08007-7.68017a16.983,16.983,0,0,0-4.56054-.56006A12.29755,12.29755,0,0,0,195.915,17.35986Z"/><path class="cls-1" d="M225.27344,58.3999a10.67635,10.67635,0,0,1-.87989-4.7998V14.87988l-8.16015.72022a8.34827,8.34827,0,0,1,1.7998,3.31982,22.44333,22.44333,0,0,1,.44043,5.16016v29.52a10.03082,10.03082,0,0,1-.84082,4.83984,5.42542,5.42542,0,0,1-3.31933,2.12012h14.24023A5.60078,5.60078,0,0,1,225.27344,58.3999Z"/><path class="cls-1" d="M221.19336,9.12012A4.27619,4.27619,0,0,0,224.2334,8a3.85687,3.85687,0,0,0,1.20019-2.96,3.76628,3.76628,0,0,0-1.20019-2.87988,4.28041,4.28041,0,0,0-3.04-1.12012,4.1736,4.1736,0,0,0-2.96,1.12012A3.76625,3.76625,0,0,0,217.0332,5.04,3.85684,3.85684,0,0,0,218.2334,8,4.16939,4.16939,0,0,0,221.19336,9.12012Z"/><path class="cls-1" d="M272.793,33.35986q-.16113-8.39941-4.91992-13.3999-4.76074-4.99878-14.04-5a21.63565,21.63565,0,0,0-11.44043,2.96,19.47339,19.47339,0,0,0-7.47949,8.24024,26.81009,26.81009,0,0,0-2.59961,12,23.84935,23.84935,0,0,0,2.91992,11.96,20.30367,20.30367,0,0,0,8.15918,8,24.69458,24.69458,0,0,0,11.96,2.83984,28.166,28.166,0,0,0,8.88086-1.48,23.72353,23.72353,0,0,0,7.83984-4.27978l.71973-11.6001q-5.92091,16.24144-17.44043,16.23974A14.00131,14.00131,0,0,1,246.833,57.04a18.32729,18.32729,0,0,1-5.91992-7.72022,27.50928,27.50928,0,0,1-2.12012-11,38.57524,38.57524,0,0,1,.31348-4.96ZM245.87305,18.91992A11.731,11.731,0,0,1,253.75293,16a10.8638,10.8638,0,0,1,9.44043,4.80029,20.61125,20.61125,0,0,1,3.33881,11.59961H239.24011a29.71351,29.71351,0,0,1,1.3927-5.48A18.64363,18.64363,0,0,1,245.87305,18.91992Z"/><path class="cls-1" d="M309.83154,40.76025a13.22639,13.22639,0,0,0-4.23925-3.96A29.85266,29.85266,0,0,0,300.312,34.48l-7.75976-2.56006-.24024-.08008a18.99244,18.99244,0,0,1-5.52051-2.67968,5.65646,5.65646,0,0,1-2.07861-4.84034,7.29216,7.29216,0,0,1,2.79932-6.1997A11.73915,11.73915,0,0,1,294.7915,16a11.30065,11.30065,0,0,1,8.64063,3.3999q3.19775,3.40137,5.28027,11.32031l.55957-10.80029a19.5184,19.5184,0,0,0-6.40039-3.71972,23.27785,23.27785,0,0,0-7.91992-1.32032q-6.479,0-10.39893,3.08008a9.98322,9.98322,0,0,0-3.91992,8.28027,9.73942,9.73942,0,0,0,2.87989,7.44,17.34247,17.34247,0,0,0,6.479,3.91992L298.55225,40.48a18.47052,18.47052,0,0,1,5.91992,3.2002q2.39941,2.00023,2.39941,6.23974a9.34383,9.34383,0,0,1-2.96,7.16016q-2.96044,2.75976-8.71973,2.75976a13.20144,13.20144,0,0,1-10.23974-4.1997q-3.83936-4.20045-4.71973-14.43994l-1.28027,15.11962a19.29642,19.29642,0,0,0,6.87939,3.40039A31.17422,31.17422,0,0,0,294.63232,60.96a21.93981,21.93981,0,0,0,9.19922-1.75976,13.38593,13.38593,0,0,0,5.84082-4.84034,12.71422,12.71422,0,0,0,2-7.07959A11.01234,11.01234,0,0,0,309.83154,40.76025Z"/></g></g></svg>