<svg xmlns="http://www.w3.org/2000/svg" width="145.45848mm" height="21.13842mm" viewBox="0 0 412.32324 59.91992"><defs><style>.cls-1{fill:#1a1a1a;}</style></defs><g id="Layer_2" data-name="Layer 2"><g id="Layer_1-2" data-name="Layer 1"><path class="cls-1" d="M10.76025,8.04A5.13121,5.13121,0,0,1,12,5.35986a6.47189,6.47189,0,0,1,2.64014-1.43994H0A5.91732,5.91732,0,0,1,2.72021,5.27979,5.1443,5.1443,0,0,1,3.96,7.96a29.79329,29.79329,0,0,1,.36035,5.3999V50.08008A29.79074,29.79074,0,0,1,3.96,55.47949a5.14048,5.14048,0,0,1-1.23975,2.68067A5.89845,5.89845,0,0,1,0,59.51953H14.64014A6.43754,6.43754,0,0,1,12,58.08008a5.12926,5.12926,0,0,1-1.23975-2.68067,29.16985,29.16985,0,0,1-.36035-5.31933V13.35986A29.19431,29.19431,0,0,1,10.76025,8.04Z"/><path class="cls-1" d="M64.87939,57.35938a10.697,10.697,0,0,1-.87988-4.79981V28.87988A14.43194,14.43194,0,0,0,59.75977,18.04q-4.24146-4.11913-11.76026-4.12012-8.63964,0-13.52,5.47949a20.51352,20.51352,0,0,0-4.08008,7.22425V13.83984l-8.15966.72022a8.345,8.345,0,0,1,1.7998,3.31982A22.474,22.474,0,0,1,24.47949,23.04V52.55957a10.03894,10.03894,0,0,1-.83984,4.83984,5.42405,5.42405,0,0,1-3.31983,2.12012H34.55957a5.59658,5.59658,0,0,1-3.27978-2.16015,10.68874,10.68874,0,0,1-.88038-4.79981V32.705a20.97249,20.97249,0,0,1,1.88038-7.86512,16.46552,16.46552,0,0,1,6.04-7.12011,15.49572,15.49572,0,0,1,8.48-2.43994q5.439,0,8.35987,3.35986Q58.07911,22,58.07959,28.08008V52.55957a10.03906,10.03906,0,0,1-.83984,4.83984,5.42392,5.42392,0,0,1-3.32032,2.12012H68.15967A5.59968,5.59968,0,0,1,64.87939,57.35938Z"/><path class="cls-1" d="M98.87939,35.75977a29.86708,29.86708,0,0,0-5.27978-2.32032l-7.76025-2.55957-.23975-.08008a18.98268,18.98268,0,0,1-5.52-2.67968,5.6544,5.6544,0,0,1-2.08008-4.84082,7.29351,7.29351,0,0,1,2.79981-6.19922A11.74215,11.74215,0,0,1,88.07959,14.96a11.30242,11.30242,0,0,1,8.64014,3.39942q3.19848,3.40135,5.27978,11.32031l.56006-10.79981a19.52274,19.52274,0,0,0-6.3999-3.71972,23.28215,23.28215,0,0,0-7.91992-1.32032q-6.48048,0-10.40039,3.08008a9.9839,9.9839,0,0,0-3.91993,8.28028,9.7383,9.7383,0,0,0,2.87989,7.43945,17.34594,17.34594,0,0,0,6.48,3.91992l8.56006,2.87988a18.48168,18.48168,0,0,1,5.92041,3.2002q2.39942,2.001,2.3999,6.24023a9.34624,9.34624,0,0,1-2.96,7.16016q-2.96118,2.75976-8.72022,2.75976a13.20106,13.20106,0,0,1-10.23974-4.20019q-3.84009-4.19971-4.72022-14.43945L72.23975,55.2793a19.2825,19.2825,0,0,0,6.87988,3.40039,31.16762,31.16762,0,0,0,8.7998,1.24023,21.94452,21.94452,0,0,0,9.2002-1.75976,13.384,13.384,0,0,0,5.83984-4.84082,12.70868,12.70868,0,0,0,2-7.07911,11.016,11.016,0,0,0-1.83984-6.5205A13.22927,13.22927,0,0,0,98.87939,35.75977Z"/><path class="cls-1" d="M130.52051,57.35938a6.116,6.116,0,0,1-3.87989,1.28027,4.4318,4.4318,0,0,1-4-1.96q-1.281-1.96-1.28027-7.08008V15.2002h13.12012v-.88038H121.36035V3.2002l-5.52,11.11962h-8.23974v.88038h7.83984V47.83984a19.77019,19.77019,0,0,0,1.08008,6.55957,7.89706,7.89706,0,0,0,3.23974,4.04,10.8798,10.8798,0,0,0,5.84034,1.40039,9.01,9.01,0,0,0,5.23974-1.32031,14.78543,14.78543,0,0,0,3.72022-4.20019l-1.04-.71973A12.01525,12.01525,0,0,1,130.52051,57.35938Z"/><path class="cls-1" d="M148.80127,57.35938a10.68863,10.68863,0,0,1-.88037-4.79981V13.83984l-8.15967.72022a8.34519,8.34519,0,0,1,1.79981,3.31982A22.474,22.474,0,0,1,142.001,23.04V52.55957a10.03892,10.03892,0,0,1-.83985,4.83984,5.42406,5.42406,0,0,1-3.31982,2.12012h14.23974A5.59664,5.59664,0,0,1,148.80127,57.35938Z"/><path class="cls-1" d="M144.72119,8.08008a4.27779,4.27779,0,0,0,3.04-1.12012A3.85649,3.85649,0,0,0,148.96094,4a3.76587,3.76587,0,0,0-1.19971-2.87988A4.28206,4.28206,0,0,0,144.72119,0a4.17366,4.17366,0,0,0-2.96,1.12012A3.76458,3.76458,0,0,0,140.561,4a3.85515,3.85515,0,0,0,1.20019,2.96A4.16941,4.16941,0,0,0,144.72119,8.08008Z"/><path class="cls-1" d="M177.16113,57.35938a6.11594,6.11594,0,0,1-3.87988,1.28027,4.4318,4.4318,0,0,1-4-1.96q-1.281-1.96-1.28027-7.08008V15.2002h13.12011v-.88038H168.001V3.2002l-5.52,11.11962h-8.23975v.88038h7.83984V47.83984a19.77045,19.77045,0,0,0,1.08008,6.55957,7.89712,7.89712,0,0,0,3.23975,4.04,10.87976,10.87976,0,0,0,5.84033,1.40039,9.01,9.01,0,0,0,5.23975-1.32031,14.78541,14.78541,0,0,0,3.72021-4.20019l-1.04-.71973A12.015,12.015,0,0,1,177.16113,57.35938Z"/><path class="cls-1" d="M224.16162,51.59961V13.83984l-8.16016.72022a8.33025,8.33025,0,0,1,1.79883,3.31982A22.4292,22.4292,0,0,1,218.2417,23.04V41.12012a23.76884,23.76884,0,0,1-1.83984,8.27929,16.93708,16.93708,0,0,1-4.88086,6.68067,11.684,11.684,0,0,1-7.67969,2.63965,9.511,9.511,0,0,1-7.43945-2.91993q-2.64258-2.91942-2.64063-9.48046V13.83984l-8.16016.72022a8.36017,8.36017,0,0,1,1.80079,3.31982,22.564,22.564,0,0,1,.43945,5.16016V45.91992q0,6.88038,3.959,10.43946,3.96095,3.561,11,3.56054,6.16113,0,9.75977-3.16015a24.3817,24.3817,0,0,0,6-9.10694V59.75977l7.8418-.24024a6.86352,6.86352,0,0,1-1.72071-2.87988A18.19315,18.19315,0,0,1,224.16162,51.59961Z"/><path class="cls-1" d="M252.92139,57.35938a6.114,6.114,0,0,1-3.87989,1.28027,4.43234,4.43234,0,0,1-4-1.96q-1.28027-1.96-1.27929-7.08008V15.2002h13.12011v-.88038H243.76221V3.2002L238.2417,14.31982h-8.24024v.88038h7.84083V47.83984a19.75916,19.75916,0,0,0,1.0791,6.55957,7.90523,7.90523,0,0,0,3.24023,4.04,10.88031,10.88031,0,0,0,5.83984,1.40039,9.01168,9.01168,0,0,0,5.24024-1.32031,14.77734,14.77734,0,0,0,3.71973-4.20019l-1.04-.71973A12.00145,12.00145,0,0,1,252.92139,57.35938Z"/><path class="cls-1" d="M267.12256,8.08008a4.27619,4.27619,0,0,0,3.04-1.12012A3.85687,3.85687,0,0,0,271.36279,4a3.76629,3.76629,0,0,0-1.20019-2.87988A4.28046,4.28046,0,0,0,267.12256,0a4.17364,4.17364,0,0,0-2.96,1.12012A3.76626,3.76626,0,0,0,262.9624,4a3.85684,3.85684,0,0,0,1.2002,2.96A4.16939,4.16939,0,0,0,267.12256,8.08008Z"/><path class="cls-1" d="M271.20264,57.35938a10.6764,10.6764,0,0,1-.87989-4.79981V13.83984l-8.16015.72022a8.345,8.345,0,0,1,1.7998,3.31982,22.44042,22.44042,0,0,1,.44043,5.16016V52.55957a10.03077,10.03077,0,0,1-.84082,4.83984,5.42125,5.42125,0,0,1-3.31933,2.12012h14.24023A5.59636,5.59636,0,0,1,271.20264,57.35938Z"/><path class="cls-1" d="M323.92065,36.87988A24.13652,24.13652,0,0,0,321.00293,25a20.79941,20.79941,0,0,0-8.12012-8.16016,25.79216,25.79216,0,0,0-23.84082,0A20.77982,20.77982,0,0,0,280.92334,25a24.105,24.105,0,0,0-2.91772,11.87988h-.0022l.0011.04-.0011.04h.0022a24.105,24.105,0,0,0,2.91772,11.87988A20.76709,20.76709,0,0,0,289.042,57a25.79216,25.79216,0,0,0,23.84082,0,20.78665,20.78665,0,0,0,8.12012-8.16016A24.13652,24.13652,0,0,0,323.92065,36.96h.0022l-.0011-.04.0011-.04Zm-14.35815,19.04a14.60825,14.60825,0,0,1-17.2002,0,18.29547,18.29547,0,0,1-5.7998-7.75976,28.905,28.905,0,0,1-2.07874-11.24024,28.91164,28.91164,0,0,1,2.07874-11.24023,18.30154,18.30154,0,0,1,5.7998-7.75977,14.60829,14.60829,0,0,1,17.2002,0,18.31729,18.31729,0,0,1,5.7998,7.75977,28.9204,28.9204,0,0,1,2.07923,11.24023,28.91375,28.91375,0,0,1-2.07923,11.24024A18.31121,18.31121,0,0,1,309.5625,55.91992Z"/><path class="cls-1" d="M372.24219,57.35938a10.70373,10.70373,0,0,1-.87989-4.79981V28.87988A14.43228,14.43228,0,0,0,367.12207,18.04q-4.24072-4.11913-11.75977-4.12012-8.63964,0-13.51953,5.47949a20.50954,20.50954,0,0,0-4.08007,7.22351V13.83984l-8.16016.72022a8.345,8.345,0,0,1,1.7998,3.31982,22.44042,22.44042,0,0,1,.44043,5.16016V52.55957a10.03077,10.03077,0,0,1-.84082,4.83984,5.42125,5.42125,0,0,1-3.31933,2.12012h14.24023a5.59636,5.59636,0,0,1-3.28027-2.16015,10.67629,10.67629,0,0,1-.87988-4.79981V32.7019a20.96742,20.96742,0,0,1,1.87988-7.86206,16.46222,16.46222,0,0,1,6.04-7.12011,15.49409,15.49409,0,0,1,8.47949-2.43994q5.44043,0,8.36035,3.35986Q365.4419,22,365.44238,28.08008V52.55957a10.04488,10.04488,0,0,1-.83984,4.83984,5.42686,5.42686,0,0,1-3.32031,2.12012h14.24023A5.59636,5.59636,0,0,1,372.24219,57.35938Z"/><path class="cls-1" d="M410.48242,39.71973a13.23153,13.23153,0,0,0-4.23926-3.96,29.88808,29.88808,0,0,0-5.28027-2.32032l-7.75977-2.55957-.24023-.08008a18.99244,18.99244,0,0,1-5.52051-2.67968,5.6564,5.6564,0,0,1-2.0791-4.84082,7.291,7.291,0,0,1,2.79981-6.19922A11.73915,11.73915,0,0,1,395.44238,14.96a11.30206,11.30206,0,0,1,8.64063,3.39942q3.19774,3.40135,5.28027,11.32031l.55957-10.79981a19.51,19.51,0,0,0-6.40039-3.71972,23.27809,23.27809,0,0,0-7.91992-1.32032q-6.479,0-10.39942,3.08008a9.98259,9.98259,0,0,0-3.91992,8.28028,9.7383,9.7383,0,0,0,2.87989,7.43945,17.3441,17.3441,0,0,0,6.47949,3.91992l8.56054,2.87988a18.48944,18.48944,0,0,1,5.91993,3.2002q2.39942,2.001,2.39941,6.24023a9.34453,9.34453,0,0,1-2.96,7.16016q-2.96045,2.75976-8.71973,2.75976a13.20356,13.20356,0,0,1-10.24023-4.20019q-3.83935-4.19971-4.71973-14.43945L379.60254,55.2793a19.29485,19.29485,0,0,0,6.87988,3.40039,31.17445,31.17445,0,0,0,8.80078,1.24023,21.93981,21.93981,0,0,0,9.19922-1.75976,13.38684,13.38684,0,0,0,5.84082-4.84082,12.71263,12.71263,0,0,0,2-7.07911A11.01288,11.01288,0,0,0,410.48242,39.71973Z"/></g></g></svg>