<svg xmlns="http://www.w3.org/2000/svg" width="160.66875mm" height="44.60092mm" viewBox="0 0 455.43896 126.4278"><defs><style>.cls-1{fill:#d8d8d8;}.cls-2{fill:#1a1a1a;}</style></defs><g id="Layer_2" data-name="Layer 2"><g id="Layer_1-2" data-name="Layer 1"><path class="cls-1" d="M65.52,7.71973q.24024,2.28075-1.43994,7.7998L53.3938,50.47308,37.04,4.96h-.3999l-2.31287,7.4209-.40735.01855.21631.59455L22.50592,50.31042,10.48,11.91992a9.73914,9.73914,0,0,1-.56006-4.7998A2.78039,2.78039,0,0,1,11.6001,4.96H0A4.481,4.481,0,0,1,2.31982,7a25.75681,25.75681,0,0,1,2.24024,5.16016L20.24023,60.55957h.39991L34.85437,14.96808,51.43994,60.55957h.3999L65.6001,15.75977a54.45061,54.45061,0,0,1,3-8.2002A4.97085,4.97085,0,0,1,70.96,4.96H63.83984Q65.27978,5.44042,65.52,7.71973Z"/><path class="cls-1" d="M112,33.35938Q111.83887,24.96,107.08008,19.96q-4.76074-4.99951-14.04-5a21.62949,21.62949,0,0,0-11.43994,2.96,19.46256,19.46256,0,0,0-7.48,8.24024,26.80071,26.80071,0,0,0-2.6001,12,23.86211,23.86211,0,0,0,2.91992,11.96,20.30624,20.30624,0,0,0,8.16016,8,24.69188,24.69188,0,0,0,11.96,2.83984,28.14248,28.14248,0,0,0,8.87988-1.48047,23.72491,23.72491,0,0,0,7.84033-4.27929L112,43.59961Q106.0791,59.84179,94.56006,59.83984A14.00683,14.00683,0,0,1,86.04,57.04a18.33661,18.33661,0,0,1-5.91992-7.7207,27.506,27.506,0,0,1-2.12012-11,38.5781,38.5781,0,0,1,.31354-4.96ZM85.08008,18.91992A11.73017,11.73017,0,0,1,92.96,16a10.86194,10.86194,0,0,1,9.43994,4.7998,20.60725,20.60725,0,0,1,3.33979,11.59961H78.4472a29.70949,29.70949,0,0,1,1.39264-5.47949A18.63769,18.63769,0,0,1,85.08008,18.91992Z"/><path class="cls-1" d="M127.68066,58.39941a10.69009,10.69009,0,0,1-.87988-4.7998V0l-7.92041.96A4.78257,4.78257,0,0,1,120.48047,3.04a11.68065,11.68065,0,0,1,.3999,3.59961v46.96a10.039,10.039,0,0,1-.83984,4.83984,5.42405,5.42405,0,0,1-3.31983,2.12012h14.23975A5.5966,5.5966,0,0,1,127.68066,58.39941Z"/><path class="cls-1" d="M157.20068,59.83984a13.76315,13.76315,0,0,1-8.40039-2.71972,17.81627,17.81627,0,0,1-5.75976-7.72071,29.87953,29.87953,0,0,1-2.08008-11.55957,30.72323,30.72323,0,0,1,1.96-11.36035,17.44877,17.44877,0,0,1,5.52-7.67969,12.90541,12.90541,0,0,1,8.04-2.71972,13.34815,13.34815,0,0,1,9.87988,4.20019q4.11987,4.19971,5.08008,13.63965l2.64014-12.63965a29.78258,29.78258,0,0,0-8.16016-4.60058,26.75766,26.75766,0,0,0-9.52-1.71973,22.18226,22.18226,0,0,0-11.3999,2.91992A20.20428,20.20428,0,0,0,137.24072,25.96a24.62577,24.62577,0,0,0-2.76025,11.79981,24.70327,24.70327,0,0,0,2.91992,12.16015,20.51061,20.51061,0,0,0,8.08008,8.16016A23.472,23.472,0,0,0,157.12061,60.96a32.70815,32.70815,0,0,0,8.96-1.32031,19.80981,19.80981,0,0,0,8-4.35938l.56005-13.36035q-2.24048,8.63966-6.80029,13.28028A14.46156,14.46156,0,0,1,157.20068,59.83984Z"/><path class="cls-1" d="M225.9978,37.91992A24.1365,24.1365,0,0,0,223.08008,26.04,20.79941,20.79941,0,0,0,214.96,17.87988a25.79216,25.79216,0,0,0-23.84082,0A20.77905,20.77905,0,0,0,182.99951,26.04a24.11549,24.11549,0,0,0-2.91772,11.87988h-.0022l.0011.04-.0011.04h.0022a24.11552,24.11552,0,0,0,2.91772,11.87988A20.76632,20.76632,0,0,0,191.11914,58.04a25.79216,25.79216,0,0,0,23.84082,0,20.78665,20.78665,0,0,0,8.12012-8.16016A24.13652,24.13652,0,0,0,225.9978,38H226l-.0011-.04.0011-.04ZM211.63965,56.96a14.60825,14.60825,0,0,1-17.2002,0,18.29547,18.29547,0,0,1-5.7998-7.75976A28.896,28.896,0,0,1,186.56042,37.96a28.90263,28.90263,0,0,1,2.07923-11.24023,18.30154,18.30154,0,0,1,5.7998-7.75977,14.60829,14.60829,0,0,1,17.2002,0,18.31729,18.31729,0,0,1,5.7998,7.75977A28.9204,28.9204,0,0,1,219.51868,37.96a28.91378,28.91378,0,0,1-2.07923,11.24024A18.31121,18.31121,0,0,1,211.63965,56.96Z"/><path class="cls-1" d="M306.03857,58.35938a9.81746,9.81746,0,0,1-.83984-4.75977V29.91992a14.4316,14.4316,0,0,0-4.23926-10.83984q-4.24218-4.11915-11.68066-4.12012-8.08082,0-12.83936,5.47949a20.82,20.82,0,0,0-4.07074,7.49231,13.89567,13.89567,0,0,0-4.12945-8.85168q-4.24073-4.11915-11.59961-4.12012-8.08155,0-12.83985,5.47949a20.67822,20.67822,0,0,0-3.96,7.14685V14.87988l-8.16015.71973a8.34673,8.34673,0,0,1,1.7998,3.32031,22.44042,22.44042,0,0,1,.44043,5.16016V53.59961a10.03079,10.03079,0,0,1-.84082,4.83984,5.42125,5.42125,0,0,1-3.31933,2.12012H244a5.59632,5.59632,0,0,1-3.28027-2.16016,10.67635,10.67635,0,0,1-.87989-4.7998V33.71008a21.23928,21.23928,0,0,1,1.83985-7.8302,17.19148,17.19148,0,0,1,5.83984-7.20019,13.74959,13.74959,0,0,1,7.91992-2.51953q5.35841,0,8.24024,3.43945,2.87988,3.44091,2.87988,9.52051V53.59961a10.0449,10.0449,0,0,1-.83984,4.83984,5.42686,5.42686,0,0,1-3.32032,2.12012h14.24024a5.71579,5.71579,0,0,1-3.32031-2.20019,9.81744,9.81744,0,0,1-.83985-4.75977V33.71173a21.25906,21.25906,0,0,1,1.83985-7.83185,17.20615,17.20615,0,0,1,5.83984-7.20019,13.75144,13.75144,0,0,1,7.91943-2.51953q5.35987,0,8.28028,3.43945,2.91944,3.44091,2.91992,9.52051V53.59961a10.033,10.033,0,0,1-.83985,4.83984,5.421,5.421,0,0,1-3.32031,2.12012h14.24024A5.71915,5.71915,0,0,1,306.03857,58.35938Z"/><path class="cls-1" d="M353.19971,33.35938Q353.03858,24.96,348.27979,19.96q-4.76074-4.99951-14.04-5a21.63125,21.63125,0,0,0-11.44043,2.96,19.46778,19.46778,0,0,0-7.4795,8.24024,26.80726,26.80726,0,0,0-2.59961,12,23.85183,23.85183,0,0,0,2.91993,11.96,20.30679,20.30679,0,0,0,8.15918,8,24.69458,24.69458,0,0,0,11.96,2.83984,28.153,28.153,0,0,0,8.88086-1.48047A23.72262,23.72262,0,0,0,352.48,55.2002l.71973-11.60059q-5.92091,16.24218-17.44043,16.24023a14.00438,14.00438,0,0,1-8.51953-2.7998,18.32891,18.32891,0,0,1-5.91993-7.7207,27.50616,27.50616,0,0,1-2.12011-11,38.57814,38.57814,0,0,1,.31353-4.96ZM326.27979,18.91992A11.731,11.731,0,0,1,334.15967,16a10.86339,10.86339,0,0,1,9.44043,4.7998,20.6141,20.6141,0,0,1,3.3388,11.59961h-27.292a29.70949,29.70949,0,0,1,1.39264-5.47949A18.6376,18.6376,0,0,1,326.27979,18.91992Z"/><path class="cls-1" d="M404.0376,58.39941a6.114,6.114,0,0,1-3.87989,1.28028,4.43234,4.43234,0,0,1-4-1.96q-1.28027-1.96-1.27929-7.08008V16.24023h13.12012v-.88085H394.87842V4.24023l-5.52051,11.11915h-8.24023v.88085h7.84082V48.87988a19.75942,19.75942,0,0,0,1.0791,6.55957,7.90523,7.90523,0,0,0,3.24023,4.04,10.88032,10.88032,0,0,0,5.83985,1.40039,9.01167,9.01167,0,0,0,5.24023-1.32031,14.77734,14.77734,0,0,0,3.71973-4.20019l-1.04-.71973A12.00128,12.00128,0,0,1,404.0376,58.39941Z"/><path class="cls-1" d="M455.43787,37.96l.00109-.04h-.00219A24.1365,24.1365,0,0,0,452.519,26.04a20.79938,20.79938,0,0,0-8.12011-8.16016,25.79216,25.79216,0,0,0-23.84082,0A20.77786,20.77786,0,0,0,412.439,26.04a24.10506,24.10506,0,0,0-2.91772,11.87988h-.0022l.0011.04-.0011.04h.0022A24.10508,24.10508,0,0,0,412.439,49.87988,20.76513,20.76513,0,0,0,420.55811,58.04a25.79216,25.79216,0,0,0,23.84082,0,20.78663,20.78663,0,0,0,8.12011-8.16016A24.13653,24.13653,0,0,0,455.43677,38h.00219Zm-14.35926,19a14.60824,14.60824,0,0,1-17.20019,0,18.29557,18.29557,0,0,1-5.79981-7.75976A28.896,28.896,0,0,1,415.99939,37.96a28.90263,28.90263,0,0,1,2.07922-11.24023A18.30164,18.30164,0,0,1,423.87842,18.96a14.60828,14.60828,0,0,1,17.20019,0,18.31731,18.31731,0,0,1,5.79981,7.75977A28.9204,28.9204,0,0,1,448.95764,37.96a28.91378,28.91378,0,0,1-2.07922,11.24024A18.31123,18.31123,0,0,1,441.07861,56.96Z"/><path class="cls-2" d="M61.96143,70.4278h-7.04a2.2916,2.2916,0,0,1,1.35986,2.12011q.15968,1.64063-1.43994,5.40039L38.40533,118.265,21.48145,77.78815q-1.44-3.52-1.04-5.16016a2.95984,2.95984,0,0,1,1.75976-2.20019H10.36133a4.9195,4.9195,0,0,1,2.24023,1.60058,14.982,14.982,0,0,1,2.23975,3.91992l21.27978,50.08008h.48047L54.76123,81.78815a47.76962,47.76962,0,0,1,4.28027-8.75977A6.968,6.968,0,0,1,61.96143,70.4278Z"/><path class="cls-2" d="M105.63794,103.38776a24.13144,24.13144,0,0,0-2.91773-11.87989,20.80244,20.80244,0,0,0-8.12011-8.16015A23.93142,23.93142,0,0,0,82.68018,80.4278a23.92885,23.92885,0,0,0-11.91993,2.91992,20.78976,20.78976,0,0,0-8.12011,8.16015,24.12089,24.12089,0,0,0-2.91773,11.87989h-.0022l.0011.04-.0011.04h.0022a24.11289,24.11289,0,0,0,2.91773,11.87989,20.76436,20.76436,0,0,0,8.12011,8.16015,23.90826,23.90826,0,0,0,11.91993,2.91993,23.91083,23.91083,0,0,0,11.91992-2.91993,20.777,20.777,0,0,0,8.12011-8.16015,24.12344,24.12344,0,0,0,2.91773-11.87989h.0022l-.0011-.04.0011-.04Zm-14.35767,19.04a14.60415,14.60415,0,0,1-17.20019,0,18.28955,18.28955,0,0,1-5.79981-7.75977,31.41924,31.41924,0,0,1,0-22.47949,18.31072,18.31072,0,0,1,5.79981-7.76074,14.60824,14.60824,0,0,1,17.20019,0,18.31864,18.31864,0,0,1,5.79981,7.76074,31.41924,31.41924,0,0,1,0,22.47949A18.29745,18.29745,0,0,1,91.28027,122.4278Z"/><path class="cls-2" d="M125.24023,82.82819a16.27613,16.27613,0,0,0-4.80029,5.96c-.35187.728-.69726,1.52771-1.03955,2.3634V80.34772l-8.08008.7207a8.34994,8.34994,0,0,1,1.79981,3.31934,22.47972,22.47972,0,0,1,.43994,5.16015v29.52051a10.03892,10.03892,0,0,1-.83985,4.83984,5.43233,5.43233,0,0,1-3.31982,2.12012h14.23975a5.60552,5.60552,0,0,1-3.27979-2.16015,10.6886,10.6886,0,0,1-.88037-4.79981V93.251a33.75413,33.75413,0,0,1,2.08008-4.663q2.87988-5.2793,7.20019-5.28027a7.85589,7.85589,0,0,1,4.52,1.60058,20.81851,20.81851,0,0,1,4.12012,3.83985l.07959-7.67969a16.95367,16.95367,0,0,0-4.56006-.56055A12.29777,12.29777,0,0,0,125.24023,82.82819Z"/><path class="cls-2" d="M164.15771,123.86823a6.12166,6.12166,0,0,1-3.87988,1.28027,4.43386,4.43386,0,0,1-4-1.96q-1.281-1.96-1.28027-7.08008V81.70807h13.12012v-.87988H154.99756V69.70807l-5.52,11.12012h-8.23975v.87988h7.83985v32.63965a19.77183,19.77183,0,0,0,1.08007,6.56054,7.90109,7.90109,0,0,0,3.23975,4.04,10.87991,10.87991,0,0,0,5.84033,1.39942,9.01019,9.01019,0,0,0,5.23975-1.31934,14.79888,14.79888,0,0,0,3.72021-4.20019l-1.04-.71973A12.02636,12.02636,0,0,1,164.15771,123.86823Z"/><path class="cls-2" d="M178.35889,74.588a4.27569,4.27569,0,0,0,3.04-1.12012,3.85652,3.85652,0,0,0,1.1997-2.96,3.76736,3.76736,0,0,0-1.1997-2.87988,4.28424,4.28424,0,0,0-3.04-1.12012,4.17576,4.17576,0,0,0-2.96,1.12012,3.766,3.766,0,0,0-1.2002,2.87988,3.85512,3.85512,0,0,0,1.2002,2.96A4.16728,4.16728,0,0,0,178.35889,74.588Z"/><path class="cls-2" d="M182.439,123.86823a10.68888,10.68888,0,0,1-.88037-4.79981V80.34772l-8.15966.7207a8.34978,8.34978,0,0,1,1.7998,3.31934,22.47972,22.47972,0,0,1,.43994,5.16015v29.52051a10.03894,10.03894,0,0,1-.83984,4.83984,5.43235,5.43235,0,0,1-3.31983,2.12012h14.23975A5.60552,5.60552,0,0,1,182.439,123.86823Z"/><path class="cls-2" d="M222.59961,120.668A14.46079,14.46079,0,0,1,211.96,125.30768a13.76412,13.76412,0,0,1-8.40039-2.71973,17.8132,17.8132,0,0,1-5.75977-7.71972,29.8883,29.8883,0,0,1-2.08007-11.56055,30.72156,30.72156,0,0,1,1.96-11.35938,17.44387,17.44387,0,0,1,5.52051-7.67968,12.90334,12.90334,0,0,1,8.04-2.72071,13.35258,13.35258,0,0,1,9.87989,4.2002q4.11914,4.1997,5.08008,13.63965l2.63964-12.63965a29.81219,29.81219,0,0,0-8.16015-4.59961,26.75778,26.75778,0,0,0-9.51953-1.7207,22.1828,22.1828,0,0,0-11.40039,2.91992A20.21659,20.21659,0,0,0,192,91.4278a26.69238,26.69238,0,0,0,.15967,23.96,20.50246,20.50246,0,0,0,8.08056,8.16015,23.46883,23.46883,0,0,0,11.63965,2.87989,32.7057,32.7057,0,0,0,8.96-1.31934,19.80833,19.80833,0,0,0,8-4.36035l.55957-13.36035Q227.15967,116.02887,222.59961,120.668Z"/></g></g></svg>